<?xml version="1.0" encoding="UTF-8" standalone="no"?>
<svg
   xmlns:dc="http://purl.org/dc/elements/1.1/"
   xmlns:cc="http://creativecommons.org/ns#"
   xmlns:rdf="http://www.w3.org/1999/02/22-rdf-syntax-ns#"
   xmlns:svg="http://www.w3.org/2000/svg"
   xmlns="http://www.w3.org/2000/svg"
   xmlns:sodipodi="http://sodipodi.sourceforge.net/DTD/sodipodi-0.dtd"
   xmlns:inkscape="http://www.inkscape.org/namespaces/inkscape"
   inkscape:export-ydpi="300"
   inkscape:export-xdpi="300"
   inkscape:export-filename="/home/jflory/Downloads/path7150.png"
   inkscape:version="1.0beta2 (unknown)"
   sodipodi:docname="chaoss.svg"
   viewBox="0 0 374.33334 90.333336"
   height="90.333336"
   width="374.33334"
   id="svg6575"
   version="1.1">
  <metadata
     id="metadata6581">
    <rdf:RDF>
      <cc:Work
         rdf:about="">
        <dc:format>image/svg+xml</dc:format>
        <dc:type
           rdf:resource="http://purl.org/dc/dcmitype/StillImage" />
        <dc:title></dc:title>
      </cc:Work>
    </rdf:RDF>
  </metadata>
  <defs
     id="defs6579" />
  <sodipodi:namedview
     inkscape:current-layer="g6583"
     inkscape:window-maximized="0"
     inkscape:window-y="20"
     inkscape:window-x="0"
     inkscape:cy="45.166668"
     inkscape:cx="191.37352"
     inkscape:zoom="2.62"
     showgrid="false"
     id="namedview6577"
     inkscape:window-height="1041"
     inkscape:window-width="1916"
     inkscape:pageshadow="2"
     inkscape:pageopacity="0"
     guidetolerance="10"
     gridtolerance="10"
     objecttolerance="10"
     borderopacity="1"
     inkscape:document-rotation="0"
     bordercolor="#666666"
     pagecolor="#ffffff" />
  <g
     id="g6583"
     inkscape:label="Image"
     inkscape:groupmode="layer">
    <g
       id="g7148">
      <path
         inkscape:connector-curvature="0"
         id="path7168"
         d="m 215.74035,80.990462 c -5.40474,-1.17098 -9.72444,-3.11469 -14.0868,-6.338556 -3.87825,-2.866107 -3.92346,-2.389874 0.58905,-6.205524 2.15824,-1.824947 4.10476,-3.426597 4.3256,-3.55922 0.22918,-0.137627 1.09729,0.258717 2.02241,0.92335 2.13793,1.535953 6.04949,3.36387 8.74273,4.08558 3.34794,0.897153 9.76178,0.805213 13,-0.186353 9.39979,-2.878287 15.99899,-9.702387 18.33489,-18.959738 l 0.35747,-1.416666 h 5.51645 5.51645 l -0.2352,1.416666 c -1.9751,11.896254 -9.49864,22.008041 -20.27606,27.251408 -5.36482,2.610063 -8.64631,3.370973 -15.214,3.52782 -4.60575,0.109993 -6.0029,0.0224 -8.59299,-0.538767 z m 71.20298,-3.338733 c -4.69762,-0.65399 -9.7561,-2.81563 -12.88396,-5.505707 -3.73986,-3.216417 -6.31062,-8.68898 -6.45739,-13.74632 -0.0649,-2.23786 0.0295,-2.747357 0.67803,-3.65814 0.84809,-1.19104 2.83099,-1.953297 4.19237,-1.611614 0.47635,0.11956 1.32775,0.62986 1.89198,1.134007 0.92469,0.826207 1.05665,1.19544 1.33775,3.743003 0.84181,7.629287 6.19076,11.659711 15.4741,11.659711 5.07385,0 8.19401,-1.09394 11.23603,-3.93939 5.21351,-4.876634 3.98499,-10.365301 -3.15103,-14.077871 -1.48305,-0.771566 -5.18603,-2.267713 -8.22883,-3.32477 -12.03556,-4.181103 -15.0029,-5.658907 -18.72331,-9.324637 -2.95307,-2.909673 -4.18633,-5.206093 -4.60859,-8.581534 -1.06607,-8.521814 4.34751,-15.662904 14.13286,-18.642756 1.6363,-0.498291 3.1517,-0.609044 8.33333,-0.609044 5.61318,0 6.63812,0.0873 9.01372,0.767733 6.87496,1.969169 11.55995,6.245249 13.68372,12.489414 0.9247,2.718731 1.01558,4.530704 0.29692,5.920431 -1.21289,2.345481 -4.49173,2.608651 -6.41082,0.514553 -0.59595,-0.650287 -1.08354,-1.478916 -1.08354,-1.841398 0,-1.232675 -1.3349,-4.232568 -2.47733,-5.567235 -2.42765,-2.836163 -7.27178,-4.454966 -13.30199,-4.445237 -5.38462,0.0087 -10.0426,1.67944 -12.41751,4.453991 -2.13159,2.490283 -2.37605,6.098074 -0.5858,8.645296 2.00611,2.854346 4.89571,4.337773 16.11597,8.27344 8.95729,3.141903 12.78339,5.101063 15.82453,8.102973 3.38922,3.345514 4.60272,5.894014 4.7844,10.047807 0.17754,4.05937 -0.6086,6.75057 -2.94291,10.07451 -2.73777,3.898444 -7.24944,6.962557 -12.33813,8.379481 -2.91019,0.810326 -8.15623,1.118743 -11.38457,0.669303 z m 51.00001,0 c -4.69763,-0.65399 -9.7561,-2.81563 -12.88397,-5.505707 -3.73215,-3.20979 -6.32539,-8.72326 -6.46732,-13.750154 -0.0837,-2.963626 0.48354,-4.182913 2.29872,-4.941343 1.48359,-0.619883 2.41663,-0.569467 3.67639,0.19865 1.42803,0.870723 1.97636,2.067413 2.18349,4.765283 0.5375,7.001234 6.36172,11.248211 15.42556,11.248211 5.07386,0 8.194,-1.09394 11.23603,-3.93939 5.2135,-4.876634 3.985,-10.365301 -3.15103,-14.077871 -1.48307,-0.771566 -5.18604,-2.267713 -8.22884,-3.32477 -12.06522,-4.19141 -15.03376,-5.669493 -18.72563,-9.323767 -2.90348,-2.87391 -4.11217,-5.069023 -4.63493,-8.417537 -1.29633,-8.303539 4.36709,-15.825004 14.16153,-18.807623 1.6363,-0.498291 3.1517,-0.609044 8.33333,-0.609044 5.61317,0 6.63814,0.0873 9.01374,0.767733 7.00693,2.006975 11.52713,6.235716 13.83466,12.942684 1.5774,4.584804 -0.11653,7.843386 -3.8191,7.346765 -1.5194,-0.203792 -3.5293,-2.029838 -3.5293,-3.206449 0,-1.232675 -1.3349,-4.232568 -2.47733,-5.567235 -3.95233,-4.617406 -15.54067,-5.985971 -22.18341,-2.619831 -5.94048,3.010269 -7.17014,9.075937 -2.62807,12.96378 2.4958,2.136304 4.75901,3.1325 16.76571,7.379734 2.92064,1.033137 6.29564,2.37536 7.5,2.98272 4.76117,2.40102 8.19594,5.6759 9.9744,9.5101 1.21417,2.617667 1.4012,7.053234 0.43194,10.244301 -1.79277,5.90239 -7.64897,11.102 -14.722,13.071457 -2.9102,0.810326 -8.15624,1.118743 -11.38457,0.669303 z M 37.333334,76.833889 C 24.349493,74.216326 13.983659,63.815345 11.256077,50.668218 10.324609,46.178481 10.565232,39.755848 11.824341,35.500291 15.538273,22.947885 25.717189,13.830322 38.457971,11.643746 c 3.7572,-0.644812 10.759487,-0.238265 14.375363,0.834621 4.276837,1.269004 8.195207,3.22966 8.916667,4.461681 1.55185,2.650066 -0.366703,6.059953 -3.409597,6.059953 -0.56432,0 -2.10927,-0.511848 -3.43322,-1.137439 -4.265246,-2.015409 -5.875723,-2.35229 -11.240517,-2.351306 -4.554823,8.34e-4 -5.000323,0.0603 -7.731303,1.031995 -6.34603,2.257939 -11.631214,6.859331 -14.433367,12.565995 -2.071965,4.219615 -2.624125,6.581352 -2.624125,11.224089 0,5.716353 1.329802,9.90362 4.601123,14.487963 5.073491,7.109861 12.937072,10.894847 21.646586,10.419171 3.994147,-0.21814 6.849377,-1.036557 10.970733,-3.144617 2.38706,-1.220973 3.1364,-1.45972 4.045977,-1.289083 1.36588,0.25624 2.697407,1.530833 3.204567,3.067543 0.32936,0.997967 0.27668,1.355857 -0.400474,2.72074 -0.70339,1.41777 -1.07339,1.719557 -3.779716,3.082884 -3.387224,1.706333 -6.648707,2.80332 -9.833334,3.307406 -2.933897,0.4644 -9.346663,0.383464 -12,-0.151453 z m 33.148301,0.1399 c -0.560104,-0.16088 -1.385104,-0.682883 -1.833334,-1.160003 L 67.833335,74.946292 V 44.279138 13.611981 l 1.088593,-0.972657 c 1.25206,-1.118716 3.13159,-1.306849 4.74106,-0.474561 2.135203,1.104157 2.00368,-1.010585 2.00368,32.217165 v 30.233591 l -0.847973,1.00776 c -0.76906,0.913977 -1.32673,1.217933 -2.818694,1.536323 -0.275,0.05869 -0.958266,-0.02493 -1.518366,-0.185813 z m 42.399215,0.0086 c -0.52386,-0.152467 -1.25706,-0.548377 -1.62934,-0.879797 -1.51438,-1.348213 -1.58484,-2.026106 -1.58484,-15.24759 V 48.355258 l -13.360952,-0.0943 -13.360953,-0.09429 -0.97238,-1.088593 c -1.719977,-1.925534 -1.181954,-5.102127 1.060563,-6.261777 0.768147,-0.397227 3.215134,-0.482963 13.783834,-0.482963 H 109.66667 V 27.822628 c 0,-13.579619 0.0536,-14.029812 1.83789,-15.433328 1.09401,-0.860549 3.07718,-0.956043 4.50635,-0.216991 2.08327,1.077301 1.98922,-0.447637 1.98785,32.227806 -0.001,28.886324 -0.0204,29.797961 -0.64883,30.828614 -0.97286,1.595513 -2.69312,2.27054 -4.46908,1.753653 z m 14.1307,-0.08453 c -1.58305,-0.54524 -2.78482,-2.36037 -2.5807,-3.897853 0.17632,-1.32814 25.68014,-58.831134 26.52082,-59.796007 0.96678,-1.109601 2.58122,-1.599047 4.00759,-1.214967 0.69751,0.187822 1.50808,0.606549 1.80126,0.930506 0.29317,0.323956 6.69199,13.764198 14.2196,29.867204 10.53983,22.546747 13.68655,29.5714 13.68655,30.553487 0,3.44914 -4.8116,5.1995 -6.92107,2.517744 -0.32899,-0.41824 -2.16766,-4.157384 -4.08594,-8.309204 l -3.48777,-7.54877 h -9.09665 c -9.89065,0 -10.66696,-0.118707 -12.01927,-1.837894 -0.97551,-1.24016 -0.97551,-3.417386 0,-4.657546 1.30226,-1.65556 2.28773,-1.837894 9.93333,-1.837894 3.85589,0 7.0107,-0.08869 7.0107,-0.197086 0,-0.418557 -11.79377,-25.469581 -11.99082,-25.469581 -0.11468,0 -4.53765,9.7875 -9.8288,21.75 -13.03183,29.462991 -12.49937,28.371838 -14.17121,29.040771 -1.57146,0.628777 -1.49126,0.62591 -2.99762,0.107084 z m 63.49455,-15.64786 c -1.01025,-2.0625 -2.24142,-5.25 -2.73594,-7.083334 -0.81278,-3.013283 -0.89999,-3.893423 -0.90821,-9.166667 -0.008,-4.938736 0.10145,-6.25011 0.7117,-8.55098 1.56427,-5.897903 4.08248,-10.864454 7.75969,-15.304073 1.77056,-2.137663 5.4318,-5.478281 6.00406,-5.478281 0.1535,0 1.50103,2.107975 2.99451,4.684389 l 2.71541,4.684389 -2.16014,2.289866 c -7.44878,7.896093 -9.1955,19.519257 -4.36568,29.050441 l 0.81142,1.601256 -4.19142,3.511497 c -2.30528,1.931324 -4.32803,3.511497 -4.495,3.511497 -0.16697,0 -1.13015,-1.6875 -2.1404,-3.75 z m 58.15467,-22.000001 c -1.35126,-5.245593 -3.42562,-9.00036 -6.88167,-12.456411 l -1.81687,-1.816875 2.54736,-4.405024 c 1.40105,-2.422763 2.67763,-4.540605 2.83684,-4.706315 0.70039,-0.728948 6.11235,4.575175 8.84788,8.671574 2.88603,4.321779 5.00074,9.721724 5.63134,14.379718 l 0.23691,1.75 h -5.51843 -5.51843 z M 211.68461,15.990564 c -1.51086,-2.600484 -2.62048,-4.845908 -2.46581,-4.989832 0.54743,-0.509416 5.62311,-2.0278787 8.39318,-2.5109377 3.49018,-0.6086371 8.4094,-0.6113037 11.80211,-0.0064 2.46017,0.4386383 7.2711,1.8882897 8.18012,2.4648737 0.31887,0.202251 -0.26865,1.477706 -2.31129,5.01764 -2.38287,4.129546 -2.82835,4.720136 -3.42754,4.543966 -5.27952,-1.552243 -11.4264,-1.551076 -16.7229,0.0032 -0.61443,0.180304 -1.03959,-0.377366 -3.44787,-4.522489 z"
         style="fill:#d1d0d0;stroke-width:0.333333" />
      <path
         inkscape:connector-curvature="0"
         id="path7166"
         d="m 217.46626,81.181219 c -6.72976,-1.045423 -12.49208,-3.753877 -18.22885,-8.568067 l -0.92926,-0.779817 4.21407,-3.5 c 2.31773,-1.925 4.34775,-3.462716 4.51115,-3.417146 0.1634,0.04557 1.02302,0.604386 1.91028,1.241813 2.29051,1.645573 5.4638,3.057587 8.72457,3.882167 3.66708,0.927326 9.57363,0.76076 13.16512,-0.37126 5.28474,-1.665727 10.48314,-5.332084 13.62098,-9.606671 1.67338,-2.279603 3.42207,-5.933116 4.06517,-8.49331 l 0.56156,-2.235593 h 5.45114 5.45115 l -0.19486,1.083333 c -2.17076,12.068814 -9.08921,21.711487 -19.39753,27.035521 -7.14525,3.69038 -14.97487,4.96398 -22.92469,3.72903 z m 67.03375,-4.047857 c -3.04913,-0.669993 -7.89308,-3.007 -10.03609,-4.842007 -4.36385,-3.73665 -6.78012,-8.841146 -6.79232,-14.34911 -0.004,-1.90745 0.11732,-2.36971 0.85297,-3.24398 1.19748,-1.423127 2.97691,-1.915507 4.54886,-1.258703 1.70488,0.712343 2.30337,1.826846 2.60898,4.858383 0.28709,2.847803 1.26242,5.19006 2.9719,7.137054 1.1462,1.305453 4.08147,2.94369 6.59837,3.682706 2.53817,0.745257 6.89597,1.019197 9.24733,0.581307 2.91783,-0.543387 6.55281,-2.38479 8.34228,-4.22602 1.92826,-1.984027 2.50092,-3.101917 2.731,-5.33114 0.15429,-1.494984 0.0376,-2.08235 -0.72184,-3.63467 -1.58414,-3.237867 -4.75608,-5.110037 -14.18478,-8.372247 -11.35298,-3.92799 -14.81972,-5.66455 -18.42527,-9.229581 -3.13929,-3.104013 -4.32503,-5.643783 -4.51786,-9.676903 -0.33002,-6.902717 3.03329,-12.280702 9.73344,-15.563909 4.32482,-2.119247 6.21681,-2.495887 12.54303,-2.49695 6.61777,-0.0011 9.33639,0.53373 13.62458,2.680401 4.57363,2.289567 7.51366,5.742482 9.24382,10.856394 1.09991,3.251051 1.05299,4.648967 -0.20408,6.080692 -1.22699,1.397465 -2.80263,1.777963 -4.4728,1.080124 -1.23278,-0.515088 -2.51919,-2.228289 -2.52687,-3.365202 -0.008,-1.140405 -1.64562,-4.272807 -2.93427,-5.611578 -2.52553,-2.623768 -6.66762,-3.890644 -12.70037,-3.884466 -5.48212,0.0056 -8.9471,1.053971 -11.70625,3.54182 -1.77105,1.596904 -2.64246,3.450521 -2.64246,5.62089 0,4.799201 3.33899,7.355447 14.98536,11.472424 9.30073,3.287794 10.37814,3.70776 12.65033,4.93099 4.50275,2.424044 8.10237,6.06657 9.41876,9.531041 1.40523,3.698246 1.1011,8.59343 -0.76336,12.286893 -1.18969,2.356774 -4.37794,5.818404 -6.9099,7.502401 -1.0427,0.6935 -3.24583,1.780703 -4.89583,2.416006 -2.89723,1.115527 -3.17698,1.158257 -8.16666,1.24737 -3.71401,0.06633 -5.82271,-0.05188 -7.5,-0.42043 z m 51.16666,0.03838 c -10.10044,-2.21753 -16.90681,-9.858444 -16.98078,-19.062834 -0.0169,-2.09783 0.086,-2.51614 0.83868,-3.410647 1.19748,-1.423127 2.97691,-1.915507 4.54887,-1.258703 1.70251,0.71136 2.30345,1.827643 2.60749,4.843643 0.69836,6.927384 5.51172,10.884554 14.07174,11.568694 3.35014,0.26775 5.99894,-0.183504 8.81647,-1.501987 2.814,-1.316823 4.14217,-2.381923 5.588,-4.481203 1.72767,-2.508541 1.9444,-4.806414 0.6943,-7.361527 -1.58413,-3.237867 -4.75607,-5.110037 -14.18477,-8.372247 -11.26508,-3.89758 -14.76286,-5.641484 -18.39191,-9.169734 -3.12323,-3.036487 -4.35708,-5.67614 -4.55122,-9.73675 -0.39296,-8.219152 4.55291,-14.349082 13.94313,-17.281163 2.20964,-0.689954 3.15817,-0.780621 8.16667,-0.780621 6.79943,0 9.47363,0.519921 13.79123,2.681326 4.58474,2.295123 7.49657,5.721433 9.2699,10.907797 0.56857,1.662842 0.77637,2.858295 0.6697,3.852881 -0.28933,2.697895 -2.8815,4.304345 -5.2966,3.282479 -1.53003,-0.647374 -2.1713,-1.474187 -2.589,-3.338063 -0.74846,-3.339759 -2.92143,-6.293988 -5.67806,-7.719501 -2.20594,-1.140726 -5.98234,-1.833713 -9.9705,-1.829629 -5.4821,0.0056 -8.94709,1.053971 -11.70624,3.54182 -1.79167,1.6155 -2.64035,3.446722 -2.64978,5.717503 -0.009,2.22607 0.82396,3.904798 2.8024,5.646291 1.98583,1.748 5.11532,3.217617 12.19028,5.724587 9.3641,3.31812 10.38544,3.716617 12.65034,4.935923 4.5263,2.43673 7.99463,5.98674 9.44736,9.669857 2.04844,5.19344 0.54034,11.605274 -3.82796,16.275007 -2.53187,2.706564 -5.0127,4.344904 -8.76974,5.791477 -2.89676,1.115344 -3.1778,1.158297 -8.16666,1.248054 -3.55727,0.064 -5.84157,-0.05522 -7.33334,-0.38273 z m -296.833336,-0.1492 c -6.98119,-1.124696 -13.209893,-4.346363 -18.359702,-9.49617 -4.459807,-4.459807 -7.310852,-9.408647 -8.848787,-15.359704 -1.111211,-4.299847 -1.111211,-11.36682 0,-15.666667 1.537935,-5.951058 4.38898,-10.899896 8.848787,-15.359702 4.379969,-4.37997 9.342835,-7.2748 15.193035,-8.86207 2.40556,-0.652673 3.638554,-0.768736 8.166667,-0.768736 6.24667,0 8.986597,0.581262 14.072157,2.985343 4.306563,2.03583 5.39393,3.972999 3.667837,6.534347 -1.584284,2.350921 -3.059514,2.480763 -7.032487,0.618965 -3.6464,-1.70876 -6.44659,-2.301717 -10.904187,-2.309026 -4.183767,-0.0069 -7.46472,0.728988 -10.848697,2.433132 -5.122202,2.579499 -9.001781,6.435453 -11.436513,11.366869 -2.008573,4.068255 -2.510152,6.320735 -2.49271,11.194212 0.01709,4.77598 0.533863,7.135943 2.380275,10.87013 4.408841,8.91645 12.715418,14.12987 22.513208,14.12987 4.343441,0 7.598721,-0.789096 11.688134,-2.83326 3.818113,-1.90855 5.145807,-1.980583 6.75965,-0.36674 1.513893,1.513894 1.601927,3.59196 0.22166,5.232314 -1.171143,1.391823 -6.645977,4.013657 -10.42166,4.990807 -3.10113,0.802576 -10.116527,1.157476 -13.166667,0.666086 z m 30.754191,-0.544336 c -2.005744,-1.088304 -1.920857,0.33225 -1.920857,-32.144871 0,-32.601619 -0.09387,-31.083887 1.98909,-32.161026 1.968113,-1.017751 4.528953,-0.300337 5.559957,1.55761 0.338356,0.609747 0.42979,6.967595 0.43914,30.536636 0.01297,32.678807 0.10676,31.150107 -1.977277,32.227804 -1.226547,0.634273 -2.903527,0.62765 -4.090053,-0.01617 z M 111.1904,75.877309 110,74.754619 V 61.543975 48.333335 H 96.983448 c -14.28274,0 -14.461057,-0.0229 -15.477803,-1.98909 -0.86412,-1.67102 -0.65407,-3.19203 0.63513,-4.59914 l 1.14077,-1.245104 13.35923,-0.09429 L 110,40.311411 V 27.229875 c 0,-14.331122 -0.0431,-14.006651 2.00368,-15.065112 1.65698,-0.856853 3.18122,-0.643093 4.58455,0.642934 l 1.24511,1.141031 v 30.14178 c 0,32.878044 0.085,31.417471 -1.88833,32.437931 -0.50154,0.25936 -1.50867,0.471563 -2.23805,0.471563 -1.04787,0 -1.57596,-0.235593 -2.51656,-1.122693 z m 14.51458,0.109723 c -2.07817,-2.078166 -2.71246,-0.302126 11.67065,-32.678291 8.67234,-19.521282 13.40042,-29.784974 14.00044,-30.392074 C 152.07339,12.211124 152.59886,12 153.65758,12 c 2.18757,0 3.10944,0.688869 4.32582,3.232451 0.5964,1.247152 6.84412,14.5868 13.88382,29.64366 9.64702,20.633534 12.79945,27.681654 12.79945,28.616668 0,0.966383 -0.25047,1.49103 -1.13333,2.37389 -0.9889,0.988897 -1.34732,1.133333 -2.81239,1.133333 -1.39522,0 -1.82843,-0.15495 -2.56279,-0.916666 -0.48605,-0.504167 -2.48666,-4.366667 -4.44579,-8.583334 l -3.56206,-7.666667 -9.8579,-0.166667 c -10.63138,-0.179743 -10.50627,-0.157486 -11.48105,-2.042503 -0.61359,-1.186543 -0.60681,-2.408217 0.0201,-3.620483 1.01021,-1.95353 1.25476,-2.00368 9.77052,-2.00368 4.3983,0 7.73859,-0.128824 7.67583,-0.29603 C 165.77217,50.356898 154.12815,25.671165 154,25.674658 c -0.0917,0.0025 -5.11666,11.19329 -11.16666,24.868427 -8.39932,18.985414 -11.22277,25.052201 -11.94225,25.660401 -1.45091,1.226516 -3.84298,1.12668 -5.18611,-0.216454 z m 65.55879,-13.233303 c -6.92501,-12.857121 -5.86637,-28.383721 2.71167,-39.770757 1.84465,-2.448703 6.89388,-7.415849 7.37436,-7.254467 0.17166,0.05766 1.50485,2.178911 2.96266,4.7139 l 2.65056,4.609071 -1.77949,1.779494 c -5.57561,5.57561 -8.2771,13.633691 -7.19386,21.458021 0.40253,2.907441 1.63347,6.804494 2.7095,8.578004 l 0.62714,1.03366 -4.14489,3.460253 c -2.27969,1.903137 -4.27064,3.502167 -4.42433,3.553397 -0.15369,0.05123 -0.82569,-0.92103 -1.49332,-2.160576 z m 56.86336,-25.346171 c -1.28119,-4.008644 -3.31755,-7.495724 -6.01523,-10.300561 l -2.05478,-2.136389 2.66457,-4.651971 c 1.46551,-2.558583 2.79021,-4.65197 2.94378,-4.65197 0.50074,0 5.68372,5.07062 7.13029,6.9757 3.74395,4.930667 6.08252,10.445713 7.0422,16.607634 l 0.22064,1.416667 -5.44596,-0.0033 -5.44597,-0.0033 -1.03954,-3.252563 z M 211.68107,15.94379 c -2.03128,-3.546346 -2.59838,-4.792098 -2.27646,-5.000747 0.2358,-0.152829 1.77873,-0.714629 3.42873,-1.248446 5.32524,-1.7228514 10.89848,-2.1265531 16.373,-1.1859901 2.75145,0.4727184 7.426,1.8291921 8.37064,2.4290131 0.29597,0.187929 -0.3302,1.548062 -2.24684,4.880522 -1.46143,2.540992 -2.70878,4.671612 -2.77188,4.734711 -0.0631,0.0631 -1.28851,-0.18548 -2.72314,-0.552397 -3.5694,-0.912898 -9.10006,-0.913097 -12.66845,-4.55e-4 -1.43365,0.366666 -2.64574,0.666666 -2.69353,0.666666 -0.0478,0 -1.30422,-2.125294 -2.79207,-4.722877 z"
         style="fill:#9ad9db;stroke-width:0.333333" />
      <path
         inkscape:connector-curvature="0"
         id="path7164"
         d="m 217.46626,81.181219 c -6.72976,-1.045423 -12.49208,-3.753877 -18.22885,-8.568067 l -0.92926,-0.779817 4.21407,-3.5 c 2.31773,-1.925 4.34775,-3.462716 4.51115,-3.417146 0.1634,0.04557 1.02302,0.604386 1.91028,1.241813 2.29051,1.645573 5.4638,3.057587 8.72457,3.882167 3.66708,0.927326 9.57363,0.76076 13.16512,-0.37126 5.28474,-1.665727 10.48314,-5.332084 13.62098,-9.606671 1.67338,-2.279603 3.42207,-5.933116 4.06517,-8.49331 l 0.56156,-2.235593 h 5.45114 5.45115 l -0.19486,1.083333 c -2.17076,12.068814 -9.08921,21.711487 -19.39753,27.035521 -7.14525,3.69038 -14.97487,4.96398 -22.92469,3.72903 z m 67.03375,-4.047857 c -3.04913,-0.669993 -7.89308,-3.007 -10.03609,-4.842007 -4.36385,-3.73665 -6.78012,-8.841146 -6.79232,-14.34911 -0.004,-1.90745 0.11732,-2.36971 0.85297,-3.24398 1.19748,-1.423127 2.97691,-1.915507 4.54886,-1.258703 1.70488,0.712343 2.30337,1.826846 2.60898,4.858383 0.28709,2.847803 1.26242,5.19006 2.9719,7.137054 1.1462,1.305453 4.08147,2.94369 6.59837,3.682706 2.53817,0.745257 6.89597,1.019197 9.24733,0.581307 2.91783,-0.543387 6.55281,-2.38479 8.34228,-4.22602 1.92826,-1.984027 2.50092,-3.101917 2.731,-5.33114 0.15429,-1.494984 0.0376,-2.08235 -0.72184,-3.63467 -1.58414,-3.237867 -4.75608,-5.110037 -14.18478,-8.372247 -11.35298,-3.92799 -14.81972,-5.66455 -18.42527,-9.229581 -3.13929,-3.104013 -4.32503,-5.643783 -4.51786,-9.676903 -0.33002,-6.902717 3.03329,-12.280702 9.73344,-15.563909 4.32482,-2.119247 6.21681,-2.495887 12.54303,-2.49695 6.61777,-0.0011 9.33639,0.53373 13.62458,2.680401 4.57363,2.289567 7.51366,5.742482 9.24382,10.856394 1.09991,3.251051 1.05299,4.648967 -0.20408,6.080692 -1.22699,1.397465 -2.80263,1.777963 -4.4728,1.080124 -1.23278,-0.515088 -2.51919,-2.228289 -2.52687,-3.365202 -0.008,-1.140405 -1.64562,-4.272807 -2.93427,-5.611578 -2.52553,-2.623768 -6.66762,-3.890644 -12.70037,-3.884466 -5.48212,0.0056 -8.9471,1.053971 -11.70625,3.54182 -1.77105,1.596904 -2.64246,3.450521 -2.64246,5.62089 0,4.799201 3.33899,7.355447 14.98536,11.472424 9.30073,3.287794 10.37814,3.70776 12.65033,4.93099 4.50275,2.424044 8.10237,6.06657 9.41876,9.531041 1.40523,3.698246 1.1011,8.59343 -0.76336,12.286893 -1.18969,2.356774 -4.37794,5.818404 -6.9099,7.502401 -1.0427,0.6935 -3.24583,1.780703 -4.89583,2.416006 -2.89723,1.115527 -3.17698,1.158257 -8.16666,1.24737 -3.71401,0.06633 -5.82271,-0.05188 -7.5,-0.42043 z m 51.16666,0.03838 c -10.10044,-2.21753 -16.90681,-9.858444 -16.98078,-19.062834 -0.0169,-2.09783 0.086,-2.51614 0.83868,-3.410647 1.19748,-1.423127 2.97691,-1.915507 4.54887,-1.258703 1.70251,0.71136 2.30345,1.827643 2.60749,4.843643 0.69836,6.927384 5.51172,10.884554 14.07174,11.568694 3.35014,0.26775 5.99894,-0.183504 8.81647,-1.501987 2.814,-1.316823 4.14217,-2.381923 5.588,-4.481203 1.72767,-2.508541 1.9444,-4.806414 0.6943,-7.361527 -1.58413,-3.237867 -4.75607,-5.110037 -14.18477,-8.372247 -11.26508,-3.89758 -14.76286,-5.641484 -18.39191,-9.169734 -3.12323,-3.036487 -4.35708,-5.67614 -4.55122,-9.73675 -0.39296,-8.219152 4.55291,-14.349082 13.94313,-17.281163 2.20964,-0.689954 3.15817,-0.780621 8.16667,-0.780621 6.79943,0 9.47363,0.519921 13.79123,2.681326 4.58474,2.295123 7.49657,5.721433 9.2699,10.907797 0.56857,1.662842 0.77637,2.858295 0.6697,3.852881 -0.28933,2.697895 -2.8815,4.304345 -5.2966,3.282479 -1.53003,-0.647374 -2.1713,-1.474187 -2.589,-3.338063 -0.74846,-3.339759 -2.92143,-6.293988 -5.67806,-7.719501 -2.20594,-1.140726 -5.98234,-1.833713 -9.9705,-1.829629 -5.4821,0.0056 -8.94709,1.053971 -11.70624,3.54182 -1.79167,1.6155 -2.64035,3.446722 -2.64978,5.717503 -0.009,2.22607 0.82396,3.904798 2.8024,5.646291 1.98583,1.748 5.11532,3.217617 12.19028,5.724587 9.3641,3.31812 10.38544,3.716617 12.65034,4.935923 4.5263,2.43673 7.99463,5.98674 9.44736,9.669857 2.04844,5.19344 0.54034,11.605274 -3.82796,16.275007 -2.53187,2.706564 -5.0127,4.344904 -8.76974,5.791477 -2.89676,1.115344 -3.1778,1.158297 -8.16666,1.248054 -3.55727,0.064 -5.84157,-0.05522 -7.33334,-0.38273 z m -296.833336,-0.1492 c -6.98119,-1.124696 -13.209893,-4.346363 -18.359702,-9.49617 -4.459807,-4.459807 -7.310852,-9.408647 -8.848787,-15.359704 -1.111211,-4.299847 -1.111211,-11.36682 0,-15.666667 1.537935,-5.951058 4.38898,-10.899896 8.848787,-15.359702 4.379969,-4.37997 9.342835,-7.2748 15.193035,-8.86207 2.40556,-0.652673 3.638554,-0.768736 8.166667,-0.768736 6.24667,0 8.986597,0.581262 14.072157,2.985343 4.306563,2.03583 5.39393,3.972999 3.667837,6.534347 -1.584284,2.350921 -3.059514,2.480763 -7.032487,0.618965 -3.6464,-1.70876 -6.44659,-2.301717 -10.904187,-2.309026 -4.183767,-0.0069 -7.46472,0.728988 -10.848697,2.433132 -5.122202,2.579499 -9.001781,6.435453 -11.436513,11.366869 -2.008573,4.068255 -2.510152,6.320735 -2.49271,11.194212 0.01709,4.77598 0.533863,7.135943 2.380275,10.87013 4.408841,8.91645 12.715418,14.12987 22.513208,14.12987 4.343441,0 7.598721,-0.789096 11.688134,-2.83326 3.818113,-1.90855 5.145807,-1.980583 6.75965,-0.36674 1.513893,1.513894 1.601927,3.59196 0.22166,5.232314 -1.171143,1.391823 -6.645977,4.013657 -10.42166,4.990807 -3.10113,0.802576 -10.116527,1.157476 -13.166667,0.666086 z m 30.754191,-0.544336 c -2.005744,-1.088304 -1.920857,0.33225 -1.920857,-32.144871 0,-32.601619 -0.09387,-31.083887 1.98909,-32.161026 1.968113,-1.017751 4.528953,-0.300337 5.559957,1.55761 0.338356,0.609747 0.42979,6.967595 0.43914,30.536636 0.01297,32.678807 0.10676,31.150107 -1.977277,32.227804 -1.226547,0.634273 -2.903527,0.62765 -4.090053,-0.01617 z M 111.1904,75.877309 110,74.754619 V 61.543975 48.333335 H 96.983448 c -14.28274,0 -14.461057,-0.0229 -15.477803,-1.98909 -0.86412,-1.67102 -0.65407,-3.19203 0.63513,-4.59914 l 1.14077,-1.245104 13.35923,-0.09429 L 110,40.311411 V 27.229875 c 0,-14.331122 -0.0431,-14.006651 2.00368,-15.065112 1.65698,-0.856853 3.18122,-0.643093 4.58455,0.642934 l 1.24511,1.141031 v 30.14178 c 0,32.878044 0.085,31.417471 -1.88833,32.437931 -0.50154,0.25936 -1.50867,0.471563 -2.23805,0.471563 -1.04787,0 -1.57596,-0.235593 -2.51656,-1.122693 z m 14.51458,0.109723 c -2.07817,-2.078166 -2.71246,-0.302126 11.67065,-32.678291 8.67234,-19.521282 13.40042,-29.784974 14.00044,-30.392074 C 152.07339,12.211124 152.59886,12 153.65758,12 c 2.18757,0 3.10944,0.688869 4.32582,3.232451 0.5964,1.247152 6.84412,14.5868 13.88382,29.64366 9.64702,20.633534 12.79945,27.681654 12.79945,28.616668 0,0.966383 -0.25047,1.49103 -1.13333,2.37389 -0.9889,0.988897 -1.34732,1.133333 -2.81239,1.133333 -1.39522,0 -1.82843,-0.15495 -2.56279,-0.916666 -0.48605,-0.504167 -2.48666,-4.366667 -4.44579,-8.583334 l -3.56206,-7.666667 -9.8579,-0.166667 c -10.63138,-0.179743 -10.50627,-0.157486 -11.48105,-2.042503 -0.61359,-1.186543 -0.60681,-2.408217 0.0201,-3.620483 1.01021,-1.95353 1.25476,-2.00368 9.77052,-2.00368 4.3983,0 7.73859,-0.128824 7.67583,-0.29603 C 165.77217,50.356898 154.12815,25.671165 154,25.674658 c -0.0917,0.0025 -5.11666,11.19329 -11.16666,24.868427 -8.39932,18.985414 -11.22277,25.052201 -11.94225,25.660401 -1.45091,1.226516 -3.84298,1.12668 -5.18611,-0.216454 z m 65.55879,-13.233303 c -6.92501,-12.857121 -5.86637,-28.383721 2.71167,-39.770757 1.84465,-2.448703 6.89388,-7.415849 7.37436,-7.254467 0.17166,0.05766 1.50485,2.178911 2.96266,4.7139 l 2.65056,4.609071 -1.77949,1.779494 c -5.57561,5.57561 -8.2771,13.633691 -7.19386,21.458021 0.40253,2.907441 1.63347,6.804494 2.7095,8.578004 l 0.62714,1.03366 -4.14489,3.460253 c -2.27969,1.903137 -4.27064,3.502167 -4.42433,3.553397 -0.15369,0.05123 -0.82569,-0.92103 -1.49332,-2.160576 z m 57.39447,-24.170395 c -0.91426,-3.91902 -3.46517,-8.425374 -6.59546,-11.651371 -1.49892,-1.544743 -1.78724,-2.017978 -1.53721,-2.523061 0.16927,-0.341928 1.35415,-2.435956 2.63306,-4.653395 1.82977,-3.17255 2.43355,-3.973706 2.83333,-3.759529 1.21531,0.651086 5.11516,4.558129 6.84827,6.860892 3.32365,4.416098 5.56703,9.523895 6.62759,15.089924 l 0.45473,2.386541 h -5.42802 -5.42803 z m -36.89956,-22.665982 -2.74132,-4.750685 0.99558,-0.41936 c 4.29811,-1.8104597 11.15545,-2.9501448 15.65373,-2.6016378 4.38447,0.3396897 12,2.3603228 12,3.1839668 0,0.154956 -1.15227,2.281678 -2.5606,4.726051 -1.40833,2.444373 -2.57299,4.471471 -2.58813,4.504664 -0.0151,0.03319 -1.07537,-0.246662 -2.35607,-0.621901 -4.08288,-1.196267 -11.26079,-0.928372 -15.23448,0.568584 -0.27174,0.102368 -1.42574,-1.569142 -3.16871,-4.589682 z"
         style="fill:#c09ade;stroke-width:0.333333" />
      <path
         inkscape:connector-curvature="0"
         id="path7162"
         d="m 284.50001,77.133362 c -3.04913,-0.669993 -7.89308,-3.007 -10.03609,-4.842007 -4.36385,-3.73665 -6.78012,-8.841146 -6.79232,-14.34911 -0.004,-1.90745 0.11732,-2.36971 0.85297,-3.24398 1.19748,-1.423127 2.97691,-1.915507 4.54886,-1.258703 1.70488,0.712343 2.30337,1.826846 2.60898,4.858383 0.28709,2.847803 1.26242,5.19006 2.9719,7.137054 1.1462,1.305453 4.08147,2.94369 6.59837,3.682706 2.53817,0.745257 6.89597,1.019197 9.24733,0.581307 2.91783,-0.543387 6.55281,-2.38479 8.34228,-4.22602 1.92826,-1.984027 2.50092,-3.101917 2.731,-5.33114 0.15429,-1.494984 0.0376,-2.08235 -0.72184,-3.63467 -1.58414,-3.237867 -4.75608,-5.110037 -14.18478,-8.372247 -11.35298,-3.92799 -14.81972,-5.66455 -18.42527,-9.229581 -3.13929,-3.104013 -4.32503,-5.643783 -4.51786,-9.676903 -0.33002,-6.902717 3.03329,-12.280702 9.73344,-15.563909 4.32482,-2.119247 6.21681,-2.495887 12.54303,-2.49695 6.61777,-0.0011 9.33639,0.53373 13.62458,2.680401 4.57363,2.289567 7.51366,5.742482 9.24382,10.856394 1.09991,3.251051 1.05299,4.648967 -0.20408,6.080692 -1.22699,1.397465 -2.80263,1.777963 -4.4728,1.080124 -1.23278,-0.515088 -2.51919,-2.228289 -2.52687,-3.365202 -0.008,-1.140405 -1.64562,-4.272807 -2.93427,-5.611578 -2.52553,-2.623768 -6.66762,-3.890644 -12.70037,-3.884466 -5.48212,0.0056 -8.9471,1.053971 -11.70625,3.54182 -1.77105,1.596904 -2.64246,3.450521 -2.64246,5.62089 0,4.799201 3.33899,7.355447 14.98536,11.472424 9.30073,3.287794 10.37814,3.70776 12.65033,4.93099 4.50275,2.424044 8.10237,6.06657 9.41876,9.531041 1.40523,3.698246 1.1011,8.59343 -0.76336,12.286893 -1.18969,2.356774 -4.37794,5.818404 -6.9099,7.502401 -1.0427,0.6935 -3.24583,1.780703 -4.89583,2.416006 -2.89723,1.115527 -3.17698,1.158257 -8.16666,1.24737 -3.71401,0.06633 -5.82271,-0.05188 -7.5,-0.42043 z m 51.16666,0.03838 c -10.10044,-2.21753 -16.90681,-9.858444 -16.98078,-19.062834 -0.0169,-2.09783 0.086,-2.51614 0.83868,-3.410647 1.19748,-1.423127 2.97691,-1.915507 4.54887,-1.258703 1.70251,0.71136 2.30345,1.827643 2.60749,4.843643 0.69836,6.927384 5.51172,10.884554 14.07174,11.568694 3.35014,0.26775 5.99894,-0.183504 8.81647,-1.501987 2.814,-1.316823 4.14217,-2.381923 5.588,-4.481203 1.72767,-2.508541 1.9444,-4.806414 0.6943,-7.361527 -1.58413,-3.237867 -4.75607,-5.110037 -14.18477,-8.372247 -11.26508,-3.89758 -14.76286,-5.641484 -18.39191,-9.169734 -3.12323,-3.036487 -4.35708,-5.67614 -4.55122,-9.73675 -0.39296,-8.219152 4.55291,-14.349082 13.94313,-17.281163 2.20964,-0.689954 3.15817,-0.780621 8.16667,-0.780621 6.79943,0 9.47363,0.519921 13.79123,2.681326 4.58474,2.295123 7.49657,5.721433 9.2699,10.907797 0.56857,1.662842 0.77637,2.858295 0.6697,3.852881 -0.28933,2.697895 -2.8815,4.304345 -5.2966,3.282479 -1.53003,-0.647374 -2.1713,-1.474187 -2.589,-3.338063 -0.74846,-3.339759 -2.92143,-6.293988 -5.67806,-7.719501 -2.20594,-1.140726 -5.98234,-1.833713 -9.9705,-1.829629 -5.4821,0.0056 -8.94709,1.053971 -11.70624,3.54182 -1.79167,1.6155 -2.64035,3.446722 -2.64978,5.717503 -0.009,2.22607 0.82396,3.904798 2.8024,5.646291 1.98583,1.748 5.11532,3.217617 12.19028,5.724587 9.3641,3.31812 10.38544,3.716617 12.65034,4.935923 4.5263,2.43673 7.99463,5.98674 9.44736,9.669857 2.04844,5.19344 0.54034,11.605274 -3.82796,16.275007 -2.53187,2.706564 -5.0127,4.344904 -8.76974,5.791477 -2.89676,1.115344 -3.1778,1.158297 -8.16666,1.248054 -3.55727,0.064 -5.84157,-0.05522 -7.33334,-0.38273 z m -296.833336,-0.1492 c -6.98119,-1.124696 -13.209893,-4.346363 -18.359702,-9.49617 -4.459807,-4.459807 -7.310852,-9.408647 -8.848787,-15.359704 -1.111211,-4.299847 -1.111211,-11.36682 0,-15.666667 1.537935,-5.951058 4.38898,-10.899896 8.848787,-15.359702 4.379969,-4.37997 9.342835,-7.2748 15.193035,-8.86207 2.40556,-0.652673 3.638554,-0.768736 8.166667,-0.768736 6.24667,0 8.986597,0.581262 14.072157,2.985343 4.306563,2.03583 5.39393,3.972999 3.667837,6.534347 -1.584284,2.350921 -3.059514,2.480763 -7.032487,0.618965 -3.6464,-1.70876 -6.44659,-2.301717 -10.904187,-2.309026 -4.183767,-0.0069 -7.46472,0.728988 -10.848697,2.433132 -5.122202,2.579499 -9.001781,6.435453 -11.436513,11.366869 -2.008573,4.068255 -2.510152,6.320735 -2.49271,11.194212 0.01709,4.77598 0.533863,7.135943 2.380275,10.87013 4.408841,8.91645 12.715418,14.12987 22.513208,14.12987 4.343441,0 7.598721,-0.789096 11.688134,-2.83326 3.818113,-1.90855 5.145807,-1.980583 6.75965,-0.36674 1.513893,1.513894 1.601927,3.59196 0.22166,5.232314 -1.171143,1.391823 -6.645977,4.013657 -10.42166,4.990807 -3.10113,0.802576 -10.116527,1.157476 -13.166667,0.666086 z m 30.754191,-0.544336 c -2.005744,-1.088304 -1.920857,0.33225 -1.920857,-32.144871 0,-32.601619 -0.09387,-31.083887 1.98909,-32.161026 1.968113,-1.017751 4.528953,-0.300337 5.559957,1.55761 0.338356,0.609747 0.42979,6.967595 0.43914,30.536636 0.01297,32.678807 0.10676,31.150107 -1.977277,32.227804 -1.226547,0.634273 -2.903527,0.62765 -4.090053,-0.01617 z M 111.1904,75.877309 110,74.754619 V 61.543975 48.333335 H 96.983448 c -14.28274,0 -14.461057,-0.0229 -15.477803,-1.98909 -0.86412,-1.67102 -0.65407,-3.19203 0.63513,-4.59914 l 1.14077,-1.245104 13.35923,-0.09429 L 110,40.311411 V 27.229875 c 0,-14.331122 -0.0431,-14.006651 2.00368,-15.065112 1.65698,-0.856853 3.18122,-0.643093 4.58455,0.642934 l 1.24511,1.141031 v 30.14178 c 0,32.878044 0.085,31.417471 -1.88833,32.437931 -0.50154,0.25936 -1.50867,0.471563 -2.23805,0.471563 -1.04787,0 -1.57596,-0.235593 -2.51656,-1.122693 z m 14.51458,0.109723 c -2.07817,-2.078166 -2.71246,-0.302126 11.67065,-32.678291 8.67234,-19.521282 13.40042,-29.784974 14.00044,-30.392074 C 152.07339,12.211124 152.59886,12 153.65758,12 c 2.18757,0 3.10944,0.688869 4.32582,3.232451 0.5964,1.247152 6.84412,14.5868 13.88382,29.64366 9.64702,20.633534 12.79945,27.681654 12.79945,28.616668 0,0.966383 -0.25047,1.49103 -1.13333,2.37389 -0.9889,0.988897 -1.34732,1.133333 -2.81239,1.133333 -1.39522,0 -1.82843,-0.15495 -2.56279,-0.916666 -0.48605,-0.504167 -2.48666,-4.366667 -4.44579,-8.583334 l -3.56206,-7.666667 -9.8579,-0.166667 c -10.63138,-0.179743 -10.50627,-0.157486 -11.48105,-2.042503 -0.61359,-1.186543 -0.60681,-2.408217 0.0201,-3.620483 1.01021,-1.95353 1.25476,-2.00368 9.77052,-2.00368 4.3983,0 7.73859,-0.128824 7.67583,-0.29603 C 165.77217,50.356898 154.12815,25.671165 154,25.674658 c -0.0917,0.0025 -5.11666,11.19329 -11.16666,24.868427 -8.39932,18.985414 -11.22277,25.052201 -11.94225,25.660401 -1.45091,1.226516 -3.84298,1.12668 -5.18611,-0.216454 z m 65.9772,-12.554447 c -2.5762,-4.09731 -4.58518,-10.828267 -4.9046,-16.432584 -0.61525,-10.794607 3.70078,-21.464584 11.69688,-28.916667 1.42619,-1.329167 2.69643,-2.416667 2.82274,-2.416667 0.12632,0 1.44304,2.105215 2.92605,4.678254 l 2.69638,4.678254 -1.77365,1.816681 c -2.23923,2.293564 -3.54484,4.190152 -4.98774,7.245432 -1.74927,3.703993 -2.27802,6.17788 -2.29721,10.748047 -0.0193,4.598156 0.56974,7.449597 2.25648,10.923037 l 1.07718,2.218203 -3.49204,2.92938 c -5.61194,4.707714 -4.85125,4.38822 -6.02047,2.52863 z m 56.97606,-24.849251 c -0.91426,-3.91902 -3.46517,-8.425374 -6.59546,-11.651371 -1.49892,-1.544743 -1.78724,-2.017978 -1.53721,-2.523061 0.16927,-0.341928 1.35415,-2.435956 2.63306,-4.653395 1.82977,-3.17255 2.43355,-3.973706 2.83333,-3.759529 1.21531,0.651086 5.11516,4.558129 6.84827,6.860892 3.32365,4.416098 5.56703,9.523895 6.62759,15.089924 l 0.45473,2.386541 h -5.42802 -5.42803 z m -36.89956,-22.665982 -2.74132,-4.750685 0.99558,-0.41936 c 4.29811,-1.8104597 11.15545,-2.9501448 15.65373,-2.6016378 4.38447,0.3396897 12,2.3603228 12,3.1839668 0,0.154956 -1.15227,2.281678 -2.5606,4.726051 -1.40833,2.444373 -2.57299,4.471471 -2.58813,4.504664 -0.0151,0.03319 -1.07537,-0.246662 -2.35607,-0.621901 -4.08288,-1.196267 -11.26079,-0.928372 -15.23448,0.568584 -0.27174,0.102368 -1.42574,-1.569142 -3.16871,-4.589682 z"
         style="fill:#66c8ba;stroke-width:0.333333" />
      <path
         inkscape:connector-curvature="0"
         id="path7160"
         d="m 284.50001,77.133362 c -3.04913,-0.669993 -7.89308,-3.007 -10.03609,-4.842007 -4.36385,-3.73665 -6.78012,-8.841146 -6.79232,-14.34911 -0.004,-1.90745 0.11732,-2.36971 0.85297,-3.24398 1.19748,-1.423127 2.97691,-1.915507 4.54886,-1.258703 1.70488,0.712343 2.30337,1.826846 2.60898,4.858383 0.28709,2.847803 1.26242,5.19006 2.9719,7.137054 1.1462,1.305453 4.08147,2.94369 6.59837,3.682706 2.53817,0.745257 6.89597,1.019197 9.24733,0.581307 2.91783,-0.543387 6.55281,-2.38479 8.34228,-4.22602 1.92826,-1.984027 2.50092,-3.101917 2.731,-5.33114 0.15429,-1.494984 0.0376,-2.08235 -0.72184,-3.63467 -1.58414,-3.237867 -4.75608,-5.110037 -14.18478,-8.372247 -11.35298,-3.92799 -14.81972,-5.66455 -18.42527,-9.229581 -3.13929,-3.104013 -4.32503,-5.643783 -4.51786,-9.676903 -0.33002,-6.902717 3.03329,-12.280702 9.73344,-15.563909 4.32482,-2.119247 6.21681,-2.495887 12.54303,-2.49695 6.61777,-0.0011 9.33639,0.53373 13.62458,2.680401 4.57363,2.289567 7.51366,5.742482 9.24382,10.856394 1.09991,3.251051 1.05299,4.648967 -0.20408,6.080692 -1.22699,1.397465 -2.80263,1.777963 -4.4728,1.080124 -1.23278,-0.515088 -2.51919,-2.228289 -2.52687,-3.365202 -0.008,-1.140405 -1.64562,-4.272807 -2.93427,-5.611578 -2.52553,-2.623768 -6.66762,-3.890644 -12.70037,-3.884466 -5.48212,0.0056 -8.9471,1.053971 -11.70625,3.54182 -1.77105,1.596904 -2.64246,3.450521 -2.64246,5.62089 0,4.799201 3.33899,7.355447 14.98536,11.472424 9.30073,3.287794 10.37814,3.70776 12.65033,4.93099 4.50275,2.424044 8.10237,6.06657 9.41876,9.531041 1.40523,3.698246 1.1011,8.59343 -0.76336,12.286893 -1.18969,2.356774 -4.37794,5.818404 -6.9099,7.502401 -1.0427,0.6935 -3.24583,1.780703 -4.89583,2.416006 -2.89723,1.115527 -3.17698,1.158257 -8.16666,1.24737 -3.71401,0.06633 -5.82271,-0.05188 -7.5,-0.42043 z m 51.16666,0.03838 c -10.10044,-2.21753 -16.90681,-9.858444 -16.98078,-19.062834 -0.0169,-2.09783 0.086,-2.51614 0.83868,-3.410647 1.19748,-1.423127 2.97691,-1.915507 4.54887,-1.258703 1.70251,0.71136 2.30345,1.827643 2.60749,4.843643 0.69836,6.927384 5.51172,10.884554 14.07174,11.568694 3.35014,0.26775 5.99894,-0.183504 8.81647,-1.501987 2.814,-1.316823 4.14217,-2.381923 5.588,-4.481203 1.72767,-2.508541 1.9444,-4.806414 0.6943,-7.361527 -1.58413,-3.237867 -4.75607,-5.110037 -14.18477,-8.372247 -11.26508,-3.89758 -14.76286,-5.641484 -18.39191,-9.169734 -3.12323,-3.036487 -4.35708,-5.67614 -4.55122,-9.73675 -0.39296,-8.219152 4.55291,-14.349082 13.94313,-17.281163 2.20964,-0.689954 3.15817,-0.780621 8.16667,-0.780621 6.79943,0 9.47363,0.519921 13.79123,2.681326 4.58474,2.295123 7.49657,5.721433 9.2699,10.907797 0.56857,1.662842 0.77637,2.858295 0.6697,3.852881 -0.28933,2.697895 -2.8815,4.304345 -5.2966,3.282479 -1.53003,-0.647374 -2.1713,-1.474187 -2.589,-3.338063 -0.74846,-3.339759 -2.92143,-6.293988 -5.67806,-7.719501 -2.20594,-1.140726 -5.98234,-1.833713 -9.9705,-1.829629 -5.4821,0.0056 -8.94709,1.053971 -11.70624,3.54182 -1.79167,1.6155 -2.64035,3.446722 -2.64978,5.717503 -0.009,2.22607 0.82396,3.904798 2.8024,5.646291 1.98583,1.748 5.11532,3.217617 12.19028,5.724587 9.3641,3.31812 10.38544,3.716617 12.65034,4.935923 4.5263,2.43673 7.99463,5.98674 9.44736,9.669857 2.04844,5.19344 0.54034,11.605274 -3.82796,16.275007 -2.53187,2.706564 -5.0127,4.344904 -8.76974,5.791477 -2.89676,1.115344 -3.1778,1.158297 -8.16666,1.248054 -3.55727,0.064 -5.84157,-0.05522 -7.33334,-0.38273 z m -296.833336,-0.1492 c -6.98119,-1.124696 -13.209893,-4.346363 -18.359702,-9.49617 -4.459807,-4.459807 -7.310852,-9.408647 -8.848787,-15.359704 -1.111211,-4.299847 -1.111211,-11.36682 0,-15.666667 1.537935,-5.951058 4.38898,-10.899896 8.848787,-15.359702 4.379969,-4.37997 9.342835,-7.2748 15.193035,-8.86207 2.40556,-0.652673 3.638554,-0.768736 8.166667,-0.768736 6.24667,0 8.986597,0.581262 14.072157,2.985343 4.306563,2.03583 5.39393,3.972999 3.667837,6.534347 -1.584284,2.350921 -3.059514,2.480763 -7.032487,0.618965 -3.6464,-1.70876 -6.44659,-2.301717 -10.904187,-2.309026 -4.183767,-0.0069 -7.46472,0.728988 -10.848697,2.433132 -5.122202,2.579499 -9.001781,6.435453 -11.436513,11.366869 -2.008573,4.068255 -2.510152,6.320735 -2.49271,11.194212 0.01709,4.77598 0.533863,7.135943 2.380275,10.87013 4.408841,8.91645 12.715418,14.12987 22.513208,14.12987 4.343441,0 7.598721,-0.789096 11.688134,-2.83326 3.818113,-1.90855 5.145807,-1.980583 6.75965,-0.36674 1.513893,1.513894 1.601927,3.59196 0.22166,5.232314 -1.171143,1.391823 -6.645977,4.013657 -10.42166,4.990807 -3.10113,0.802576 -10.116527,1.157476 -13.166667,0.666086 z m 30.754191,-0.544336 c -2.005744,-1.088304 -1.920857,0.33225 -1.920857,-32.144871 0,-32.601619 -0.09387,-31.083887 1.98909,-32.161026 1.968113,-1.017751 4.528953,-0.300337 5.559957,1.55761 0.338356,0.609747 0.42979,6.967595 0.43914,30.536636 0.01297,32.678807 0.10676,31.150107 -1.977277,32.227804 -1.226547,0.634273 -2.903527,0.62765 -4.090053,-0.01617 z M 111.1904,75.877309 110,74.754619 V 61.543975 48.333335 H 96.983448 c -14.28274,0 -14.461057,-0.0229 -15.477803,-1.98909 -0.86412,-1.67102 -0.65407,-3.19203 0.63513,-4.59914 l 1.14077,-1.245104 13.35923,-0.09429 L 110,40.311411 V 27.229875 c 0,-14.331122 -0.0431,-14.006651 2.00368,-15.065112 1.65698,-0.856853 3.18122,-0.643093 4.58455,0.642934 l 1.24511,1.141031 v 30.14178 c 0,32.878044 0.085,31.417471 -1.88833,32.437931 -0.50154,0.25936 -1.50867,0.471563 -2.23805,0.471563 -1.04787,0 -1.57596,-0.235593 -2.51656,-1.122693 z m 14.51458,0.109723 c -2.07817,-2.078166 -2.71246,-0.302126 11.67065,-32.678291 8.67234,-19.521282 13.40042,-29.784974 14.00044,-30.392074 C 152.07339,12.211124 152.59886,12 153.65758,12 c 2.18757,0 3.10944,0.688869 4.32582,3.232451 0.5964,1.247152 6.84412,14.5868 13.88382,29.64366 9.64702,20.633534 12.79945,27.681654 12.79945,28.616668 0,0.966383 -0.25047,1.49103 -1.13333,2.37389 -0.9889,0.988897 -1.34732,1.133333 -2.81239,1.133333 -1.39522,0 -1.82843,-0.15495 -2.56279,-0.916666 -0.48605,-0.504167 -2.48666,-4.366667 -4.44579,-8.583334 l -3.56206,-7.666667 -9.8579,-0.166667 c -10.63138,-0.179743 -10.50627,-0.157486 -11.48105,-2.042503 -0.61359,-1.186543 -0.60681,-2.408217 0.0201,-3.620483 1.01021,-1.95353 1.25476,-2.00368 9.77052,-2.00368 4.3983,0 7.73859,-0.128824 7.67583,-0.29603 C 165.77217,50.356898 154.12815,25.671165 154,25.674658 c -0.0917,0.0025 -5.11666,11.19329 -11.16666,24.868427 -8.39932,18.985414 -11.22277,25.052201 -11.94225,25.660401 -1.45091,1.226516 -3.84298,1.12668 -5.18611,-0.216454 z m 65.9772,-12.554447 c -2.5762,-4.09731 -4.58518,-10.828267 -4.9046,-16.432584 -0.61525,-10.794607 3.70078,-21.464584 11.69688,-28.916667 1.42619,-1.329167 2.69643,-2.416667 2.82274,-2.416667 0.12632,0 1.44304,2.105215 2.92605,4.678254 l 2.69638,4.678254 -1.77365,1.816681 c -2.23923,2.293564 -3.54484,4.190152 -4.98774,7.245432 -1.74927,3.703993 -2.27802,6.17788 -2.29721,10.748047 -0.0193,4.598156 0.56974,7.449597 2.25648,10.923037 l 1.07718,2.218203 -3.49204,2.92938 c -5.61194,4.707714 -4.85125,4.38822 -6.02047,2.52863 z M 212,16.259 c -1.375,-2.415371 -2.5448,-4.567544 -2.59955,-4.782608 -0.21422,-0.841402 5.8097,-2.5793161 10.87067,-3.1362124 4.85879,-0.5346484 10.38591,0.1955977 15.47888,2.0450794 1.05417,0.382814 1.91286,0.790236 1.9082,0.905383 -0.005,0.115147 -1.18185,2.234358 -2.61597,4.709358 -1.69778,2.930022 -2.77055,4.456677 -3.07486,4.375823 -0.25705,-0.0683 -1.29237,-0.361035 -2.3007,-0.650529 -3.57134,-1.025336 -11.1665,-0.648011 -14.66667,0.728635 -0.36919,0.145207 -1.15403,-0.952237 -3,-4.194929 z"
         style="fill:#e35f95;stroke-width:0.333333" />
      <path
         inkscape:connector-curvature="0"
         id="path7158"
         d="m 284.50001,77.133362 c -3.04913,-0.669993 -7.89308,-3.007 -10.03609,-4.842007 -4.36385,-3.73665 -6.78012,-8.841146 -6.79232,-14.34911 -0.004,-1.90745 0.11732,-2.36971 0.85297,-3.24398 1.19748,-1.423127 2.97691,-1.915507 4.54886,-1.258703 1.70488,0.712343 2.30337,1.826846 2.60898,4.858383 0.28709,2.847803 1.26242,5.19006 2.9719,7.137054 1.1462,1.305453 4.08147,2.94369 6.59837,3.682706 2.53817,0.745257 6.89597,1.019197 9.24733,0.581307 2.91783,-0.543387 6.55281,-2.38479 8.34228,-4.22602 1.92826,-1.984027 2.50092,-3.101917 2.731,-5.33114 0.15429,-1.494984 0.0376,-2.08235 -0.72184,-3.63467 -1.58414,-3.237867 -4.75608,-5.110037 -14.18478,-8.372247 -11.35298,-3.92799 -14.81972,-5.66455 -18.42527,-9.229581 -3.13929,-3.104013 -4.32503,-5.643783 -4.51786,-9.676903 -0.33002,-6.902717 3.03329,-12.280702 9.73344,-15.563909 4.32482,-2.119247 6.21681,-2.495887 12.54303,-2.49695 6.61777,-0.0011 9.33639,0.53373 13.62458,2.680401 4.57363,2.289567 7.51366,5.742482 9.24382,10.856394 1.09991,3.251051 1.05299,4.648967 -0.20408,6.080692 -1.22699,1.397465 -2.80263,1.777963 -4.4728,1.080124 -1.23278,-0.515088 -2.51919,-2.228289 -2.52687,-3.365202 -0.008,-1.140405 -1.64562,-4.272807 -2.93427,-5.611578 -2.52553,-2.623768 -6.66762,-3.890644 -12.70037,-3.884466 -5.48212,0.0056 -8.9471,1.053971 -11.70625,3.54182 -1.77105,1.596904 -2.64246,3.450521 -2.64246,5.62089 0,4.799201 3.33899,7.355447 14.98536,11.472424 9.30073,3.287794 10.37814,3.70776 12.65033,4.93099 4.50275,2.424044 8.10237,6.06657 9.41876,9.531041 1.40523,3.698246 1.1011,8.59343 -0.76336,12.286893 -1.18969,2.356774 -4.37794,5.818404 -6.9099,7.502401 -1.0427,0.6935 -3.24583,1.780703 -4.89583,2.416006 -2.89723,1.115527 -3.17698,1.158257 -8.16666,1.24737 -3.71401,0.06633 -5.82271,-0.05188 -7.5,-0.42043 z m 51.16666,0.03838 c -10.10044,-2.21753 -16.90681,-9.858444 -16.98078,-19.062834 -0.0169,-2.09783 0.086,-2.51614 0.83868,-3.410647 1.19748,-1.423127 2.97691,-1.915507 4.54887,-1.258703 1.70251,0.71136 2.30345,1.827643 2.60749,4.843643 0.69836,6.927384 5.51172,10.884554 14.07174,11.568694 3.35014,0.26775 5.99894,-0.183504 8.81647,-1.501987 2.814,-1.316823 4.14217,-2.381923 5.588,-4.481203 1.72767,-2.508541 1.9444,-4.806414 0.6943,-7.361527 -1.58413,-3.237867 -4.75607,-5.110037 -14.18477,-8.372247 -11.26508,-3.89758 -14.76286,-5.641484 -18.39191,-9.169734 -3.12323,-3.036487 -4.35708,-5.67614 -4.55122,-9.73675 -0.39296,-8.219152 4.55291,-14.349082 13.94313,-17.281163 2.20964,-0.689954 3.15817,-0.780621 8.16667,-0.780621 6.79943,0 9.47363,0.519921 13.79123,2.681326 4.58474,2.295123 7.49657,5.721433 9.2699,10.907797 0.56857,1.662842 0.77637,2.858295 0.6697,3.852881 -0.28933,2.697895 -2.8815,4.304345 -5.2966,3.282479 -1.53003,-0.647374 -2.1713,-1.474187 -2.589,-3.338063 -0.74846,-3.339759 -2.92143,-6.293988 -5.67806,-7.719501 -2.20594,-1.140726 -5.98234,-1.833713 -9.9705,-1.829629 -5.4821,0.0056 -8.94709,1.053971 -11.70624,3.54182 -1.79167,1.6155 -2.64035,3.446722 -2.64978,5.717503 -0.009,2.22607 0.82396,3.904798 2.8024,5.646291 1.98583,1.748 5.11532,3.217617 12.19028,5.724587 9.3641,3.31812 10.38544,3.716617 12.65034,4.935923 4.5263,2.43673 7.99463,5.98674 9.44736,9.669857 2.04844,5.19344 0.54034,11.605274 -3.82796,16.275007 -2.53187,2.706564 -5.0127,4.344904 -8.76974,5.791477 -2.89676,1.115344 -3.1778,1.158297 -8.16666,1.248054 -3.55727,0.064 -5.84157,-0.05522 -7.33334,-0.38273 z m -296.833336,-0.1492 c -6.98119,-1.124696 -13.209893,-4.346363 -18.359702,-9.49617 -4.459807,-4.459807 -7.310852,-9.408647 -8.848787,-15.359704 -1.111211,-4.299847 -1.111211,-11.36682 0,-15.666667 1.537935,-5.951058 4.38898,-10.899896 8.848787,-15.359702 4.379969,-4.37997 9.342835,-7.2748 15.193035,-8.86207 2.40556,-0.652673 3.638554,-0.768736 8.166667,-0.768736 6.24667,0 8.986597,0.581262 14.072157,2.985343 4.306563,2.03583 5.39393,3.972999 3.667837,6.534347 -1.584284,2.350921 -3.059514,2.480763 -7.032487,0.618965 -3.6464,-1.70876 -6.44659,-2.301717 -10.904187,-2.309026 -4.183767,-0.0069 -7.46472,0.728988 -10.848697,2.433132 -5.122202,2.579499 -9.001781,6.435453 -11.436513,11.366869 -2.008573,4.068255 -2.510152,6.320735 -2.49271,11.194212 0.01709,4.77598 0.533863,7.135943 2.380275,10.87013 4.408841,8.91645 12.715418,14.12987 22.513208,14.12987 4.343441,0 7.598721,-0.789096 11.688134,-2.83326 3.818113,-1.90855 5.145807,-1.980583 6.75965,-0.36674 1.513893,1.513894 1.601927,3.59196 0.22166,5.232314 -1.171143,1.391823 -6.645977,4.013657 -10.42166,4.990807 -3.10113,0.802576 -10.116527,1.157476 -13.166667,0.666086 z m 30.754191,-0.544336 c -2.005744,-1.088304 -1.920857,0.33225 -1.920857,-32.144871 0,-32.601619 -0.09387,-31.083887 1.98909,-32.161026 1.968113,-1.017751 4.528953,-0.300337 5.559957,1.55761 0.338356,0.609747 0.42979,6.967595 0.43914,30.536636 0.01297,32.678807 0.10676,31.150107 -1.977277,32.227804 -1.226547,0.634273 -2.903527,0.62765 -4.090053,-0.01617 z M 111.1904,75.877309 110,74.754619 V 61.543975 48.333335 H 96.983448 c -14.28274,0 -14.461057,-0.0229 -15.477803,-1.98909 -0.86412,-1.67102 -0.65407,-3.19203 0.63513,-4.59914 l 1.14077,-1.245104 13.35923,-0.09429 L 110,40.311411 V 27.229875 c 0,-14.331122 -0.0431,-14.006651 2.00368,-15.065112 1.65698,-0.856853 3.18122,-0.643093 4.58455,0.642934 l 1.24511,1.141031 v 30.14178 c 0,32.878044 0.085,31.417471 -1.88833,32.437931 -0.50154,0.25936 -1.50867,0.471563 -2.23805,0.471563 -1.04787,0 -1.57596,-0.235593 -2.51656,-1.122693 z m 14.51458,0.109723 c -2.07817,-2.078166 -2.71246,-0.302126 11.67065,-32.678291 8.67234,-19.521282 13.40042,-29.784974 14.00044,-30.392074 C 152.07339,12.211124 152.59886,12 153.65758,12 c 2.18757,0 3.10944,0.688869 4.32582,3.232451 0.5964,1.247152 6.84412,14.5868 13.88382,29.64366 9.64702,20.633534 12.79945,27.681654 12.79945,28.616668 0,0.966383 -0.25047,1.49103 -1.13333,2.37389 -0.9889,0.988897 -1.34732,1.133333 -2.81239,1.133333 -1.39522,0 -1.82843,-0.15495 -2.56279,-0.916666 -0.48605,-0.504167 -2.48666,-4.366667 -4.44579,-8.583334 l -3.56206,-7.666667 -9.8579,-0.166667 c -10.63138,-0.179743 -10.50627,-0.157486 -11.48105,-2.042503 -0.61359,-1.186543 -0.60681,-2.408217 0.0201,-3.620483 1.01021,-1.95353 1.25476,-2.00368 9.77052,-2.00368 4.3983,0 7.73859,-0.128824 7.67583,-0.29603 C 165.77217,50.356898 154.12815,25.671165 154,25.674658 c -0.0917,0.0025 -5.11666,11.19329 -11.16666,24.868427 -8.39932,18.985414 -11.22277,25.052201 -11.94225,25.660401 -1.45091,1.226516 -3.84298,1.12668 -5.18611,-0.216454 z M 191.67411,63.248569 C 183.42958,48.895765 185.90956,30.758717 197.73586,18.916667 199.3379,17.312501 200.86866,16 201.13756,16 c 0.27913,0 1.58545,1.928697 3.04464,4.495228 l 2.55573,4.495227 -2.11896,2.299028 c -4.71124,5.111593 -6.93663,10.787241 -6.94418,17.710518 -0.004,3.77354 0.8682,7.780341 2.31995,10.656241 0.55289,1.09528 1.00526,2.060243 1.00526,2.144366 0,0.08412 -1.87233,1.737754 -4.16074,3.674737 l -4.16074,3.521787 z M 212,16.259 c -1.375,-2.415371 -2.5448,-4.567544 -2.59955,-4.782608 -0.21422,-0.841402 5.8097,-2.5793161 10.87067,-3.1362124 4.85879,-0.5346484 10.38591,0.1955977 15.47888,2.0450794 1.05417,0.382814 1.91286,0.790236 1.9082,0.905383 -0.005,0.115147 -1.18185,2.234358 -2.61597,4.709358 -1.69778,2.930022 -2.77055,4.456677 -3.07486,4.375823 -0.25705,-0.0683 -1.29237,-0.361035 -2.3007,-0.650529 -3.57134,-1.025336 -11.1665,-0.648011 -14.66667,0.728635 -0.36919,0.145207 -1.15403,-0.952237 -3,-4.194929 z"
         style="fill:#9c9b9b;stroke-width:0.333333" />
      <path
         inkscape:connector-curvature="0"
         id="path7156"
         d="m 285.74586,77.296512 c -7.9834,-1.32994 -14.59698,-6.50897 -16.94918,-13.27274 -1.0651,-3.0627 -1.39085,-7.219127 -0.67437,-8.60465 0.75471,-1.45946 1.78967,-2.085787 3.4466,-2.085787 1.08673,0 1.66737,0.22051 2.47074,0.938323 0.94245,0.842074 1.09739,1.257287 1.51049,4.047827 0.5393,3.643043 1.53983,5.73069 3.70142,7.72318 4.48507,4.134184 13.49803,5.206844 19.58034,2.330317 4.14773,-1.961607 6.84222,-5.456313 6.82745,-8.855094 -0.0204,-4.701656 -3.54571,-7.502016 -14.02189,-11.13851 -13.38111,-4.644857 -17.24305,-6.712243 -20.94564,-11.21271 -2.13966,-2.60075 -2.80292,-4.681301 -2.81598,-8.833334 -0.009,-2.870243 0.12485,-3.843354 0.74405,-5.408255 2.40665,-6.082353 8.67679,-10.43674 16.7225,-11.613178 3.57909,-0.523332 9.63588,-0.210054 13.1595,0.680656 7.74829,1.958634 12.79277,6.783108 14.67091,14.03107 0.96771,3.734518 -0.35115,5.976374 -3.51583,5.976374 -2.05632,0 -3.52959,-1.252696 -3.85317,-3.276306 -0.63589,-3.97661 -3.61593,-7.379737 -7.63713,-8.721393 -7.34792,-2.451606 -16.10806,-1.220553 -20.28991,2.85132 -1.60684,1.564584 -2.29767,3.162036 -2.29767,5.313045 0,2.223144 0.74955,3.879505 2.48565,5.492854 2.47354,2.298637 5.62339,3.701167 17.7686,7.91182 6.51575,2.25896 9.83524,4.08799 12.90886,7.112747 2.90527,2.859084 4.08868,5.010637 4.6633,8.478367 0.81429,4.9141 -0.94731,9.714637 -5.09607,13.88727 -2.06984,2.081757 -3.11091,2.826034 -5.67228,4.055214 -1.72543,0.828023 -4.21675,1.743147 -5.53628,2.033613 -2.59789,0.571867 -8.38697,0.6524 -11.35501,0.15796 z m 51.00001,0 c -4.84742,-0.807523 -9.24797,-3.057843 -12.5792,-6.43265 -3.72521,-3.773953 -5.75118,-8.88139 -5.41985,-13.66341 0.11812,-1.704877 0.27762,-2.092547 1.19997,-2.916667 1.49062,-1.331877 3.61016,-1.336923 5.09287,-0.01213 0.94244,0.842073 1.09738,1.257286 1.51048,4.047826 0.5393,3.643044 1.53983,5.730691 3.70143,7.723181 4.48507,4.134183 13.49804,5.206843 19.58034,2.330316 4.14773,-1.961606 6.8422,-5.456313 6.82743,-8.855093 -0.0203,-4.701657 -3.5457,-7.502017 -14.02187,-11.138511 -10.45042,-3.627546 -14.06513,-5.24709 -17.53816,-7.857813 -2.48179,-1.865594 -4.81814,-4.86827 -5.6543,-7.266889 -0.9094,-2.608766 -0.81881,-7.782963 0.18086,-10.329597 2.38256,-6.069506 8.66845,-10.436394 16.71654,-11.613178 3.58683,-0.524464 9.64986,-0.209025 13.14013,0.683636 7.7796,1.989685 12.81737,6.800368 14.69027,14.028091 0.9677,3.734524 -0.35117,5.97638 -3.51584,5.97638 -2.05633,0 -3.5296,-1.252696 -3.85316,-3.276306 -0.11984,-0.749311 -0.6872,-2.300822 -1.26084,-3.447804 -1.9171,-3.833228 -5.41076,-5.671737 -12.07533,-6.354484 -3.19653,-0.327468 -4.09533,-0.30108 -6.6163,0.194244 -6.6275,1.30219 -10.29578,4.592262 -10.29578,9.234262 0,2.309808 0.8959,3.994203 3.09085,5.811185 2.47601,2.049643 5.32773,3.28752 16.906,7.33856 7.08563,2.47914 10.03806,4.087827 13.1898,7.186683 2.93546,2.886247 4.10216,5.030204 4.64913,8.543547 0.77837,4.999531 -0.9293,9.643317 -5.0819,13.819837 -2.06987,2.081757 -3.11093,2.826034 -5.6723,4.055214 -1.72543,0.828023 -4.21673,1.743147 -5.53627,2.033613 -2.5979,0.571867 -8.38696,0.6524 -11.355,0.15796 z M 39.416561,77.000976 C 26.193668,75.135522 15.305551,65.456972 11.795478,52.448338 c -0.766827,-2.841923 -0.885482,-3.92934 -0.885482,-8.115003 0,-4.20268 0.117226,-5.268024 0.898424,-8.164814 2.775931,-10.29355 10.123081,-18.558186 20.021481,-22.521698 4.058076,-1.624933 6.800153,-2.094649 12.1701,-2.084732 4.134143,0.0076 5.30935,0.135106 8.123933,0.881183 3.95625,1.048705 8.660197,3.250724 9.41941,4.409427 0.755874,1.153611 0.701167,3.325682 -0.11142,4.423591 -0.36244,0.489706 -1.251553,1.099952 -1.975806,1.356102 -1.277067,0.451666 -1.408087,0.424631 -4.3398,-0.895448 -4.449197,-2.003365 -6.653854,-2.500693 -11.116317,-2.507624 -4.316187,-0.0067 -7.11827,0.546439 -10.472474,2.067308 -7.058413,3.200436 -12.405809,9.649107 -14.197121,17.120958 -2.73712,11.416967 2.933225,23.409657 13.502928,28.558484 3.777217,1.839997 6.603413,2.474223 11,2.46851 4.468594,-0.0058 7.585964,-0.785097 11.816377,-2.953893 1.599233,-0.81988 3.31473,-1.490687 3.812213,-1.490687 3.108497,0 4.869707,3.41803 3.109167,6.03404 -1.032967,1.534893 -6.146743,4.060937 -10.41082,5.142607 -3.665847,0.92992 -9.376754,1.299327 -12.74371,0.824327 z M 69.121098,75.898042 67.833335,74.717896 V 44.365358 14.012821 l 1.031126,-1.031127 c 1.427857,-1.427856 3.230717,-1.647216 4.79735,-0.58371 0.638997,0.433781 1.35058,1.159191 1.5813,1.612021 0.329694,0.647086 0.402087,7.225987 0.33819,30.733663 l -0.0813,29.910334 -1.042786,1.04271 c -0.76408,0.764024 -1.44443,1.08798 -2.545567,1.212094 -1.36632,0.154003 -1.619723,0.06222 -2.79055,-1.010764 z m 42.799762,0.598994 C 110.02843,75.431166 110,75.204732 110,61.197578 v -12.83553 l -13.359272,-0.09769 -13.359273,-0.09769 -1.17982,-1.287763 c -1.07232,-1.170427 -1.1644,-1.424574 -1.010584,-2.789234 0.115404,-1.02386 0.44824,-1.78058 1.046344,-2.378903 L 83.014505,40.833335 96.423918,40.666668 109.83334,40.500001 110,27.333334 c 0.18261,-14.426154 0.14759,-14.186208 2.21396,-15.166764 1.33039,-0.631312 2.23079,-0.631783 3.44903,-0.0018 2.13525,1.104175 2.00368,-1.012675 2.00368,32.237475 v 30.253907 l -0.92748,1.03803 c -1.12603,1.260247 -3.34869,1.630597 -4.81833,0.802854 z M 125.8,75.866669 c -0.91012,-0.910123 -1.13333,-1.39525 -1.13333,-2.463183 0,-1.028101 2.84036,-7.710507 12.51774,-29.450001 6.88476,-15.466083 12.82512,-28.761743 13.2008,-29.545911 0.40347,-0.842161 1.10062,-1.641687 1.70318,-1.95328 1.35226,-0.699278 3.44166,-0.414777 4.43687,0.604143 0.88238,0.903397 27.77742,58.273875 28.0371,59.806635 0.52992,3.12785 -3.66491,5.408007 -6.13124,3.332724 -0.65847,-0.554064 -2.07734,-3.234927 -4.58693,-8.666667 l -3.63357,-7.864461 h -9.45519 c -7.49925,0 -9.64384,-0.09755 -10.3671,-0.471563 -2.46801,-1.276257 -2.46801,-5.447283 0,-6.72354 0.70704,-0.365627 2.60049,-0.471563 8.42845,-0.471563 4.13411,0 7.51656,-0.09008 7.51656,-0.200187 0,-0.453893 -12.11809,-26.133148 -12.33229,-26.133148 -0.12814,0 -5.22744,11.265371 -11.33178,25.034154 -12.16442,27.437731 -11.53647,26.295105 -14.4526,26.297935 -1.01595,0.001 -1.51946,-0.234884 -2.41667,-1.132087 z m 65.87411,-12.6181 C 183.42958,48.895765 185.90956,30.758717 197.73586,18.916667 199.3379,17.312501 200.86866,16 201.13756,16 c 0.27913,0 1.58545,1.928697 3.04464,4.495228 l 2.55573,4.495227 -2.11896,2.299028 c -4.71124,5.111593 -6.93663,10.787241 -6.94418,17.710518 -0.004,3.77354 0.8682,7.780341 2.31995,10.656241 0.55289,1.09528 1.00526,2.060243 1.00526,2.144366 0,0.08412 -1.87233,1.737754 -4.16074,3.674737 l -4.16074,3.521787 z M 212,16.259 c -1.375,-2.415371 -2.5448,-4.567544 -2.59955,-4.782608 -0.21422,-0.841402 5.8097,-2.5793161 10.87067,-3.1362124 4.85879,-0.5346484 10.38591,0.1955977 15.47888,2.0450794 1.05417,0.382814 1.91286,0.790236 1.9082,0.905383 -0.005,0.115147 -1.18185,2.234358 -2.61597,4.709358 -1.69778,2.930022 -2.77055,4.456677 -3.07486,4.375823 -0.25705,-0.0683 -1.29237,-0.361035 -2.3007,-0.650529 -3.57134,-1.025336 -11.1665,-0.648011 -14.66667,0.728635 -0.36919,0.145207 -1.15403,-0.952237 -3,-4.194929 z"
         style="fill:#009ade;stroke-width:0.333333" />
      <path
         inkscape:connector-curvature="0"
         id="path7154"
         d="m 285.74586,77.296512 c -7.9834,-1.32994 -14.59698,-6.50897 -16.94918,-13.27274 -1.0651,-3.0627 -1.39085,-7.219127 -0.67437,-8.60465 0.75471,-1.45946 1.78967,-2.085787 3.4466,-2.085787 1.08673,0 1.66737,0.22051 2.47074,0.938323 0.94245,0.842074 1.09739,1.257287 1.51049,4.047827 0.5393,3.643043 1.53983,5.73069 3.70142,7.72318 4.48507,4.134184 13.49803,5.206844 19.58034,2.330317 4.14773,-1.961607 6.84222,-5.456313 6.82745,-8.855094 -0.0204,-4.701656 -3.54571,-7.502016 -14.02189,-11.13851 -13.38111,-4.644857 -17.24305,-6.712243 -20.94564,-11.21271 -2.13966,-2.60075 -2.80292,-4.681301 -2.81598,-8.833334 -0.009,-2.870243 0.12485,-3.843354 0.74405,-5.408255 2.40665,-6.082353 8.67679,-10.43674 16.7225,-11.613178 3.57909,-0.523332 9.63588,-0.210054 13.1595,0.680656 7.74829,1.958634 12.79277,6.783108 14.67091,14.03107 0.96771,3.734518 -0.35115,5.976374 -3.51583,5.976374 -2.05632,0 -3.52959,-1.252696 -3.85317,-3.276306 -0.63589,-3.97661 -3.61593,-7.379737 -7.63713,-8.721393 -7.34792,-2.451606 -16.10806,-1.220553 -20.28991,2.85132 -1.60684,1.564584 -2.29767,3.162036 -2.29767,5.313045 0,2.223144 0.74955,3.879505 2.48565,5.492854 2.47354,2.298637 5.62339,3.701167 17.7686,7.91182 6.51575,2.25896 9.83524,4.08799 12.90886,7.112747 2.90527,2.859084 4.08868,5.010637 4.6633,8.478367 0.81429,4.9141 -0.94731,9.714637 -5.09607,13.88727 -2.06984,2.081757 -3.11091,2.826034 -5.67228,4.055214 -1.72543,0.828023 -4.21675,1.743147 -5.53628,2.033613 -2.59789,0.571867 -8.38697,0.6524 -11.35501,0.15796 z m 51.00001,0 c -4.84742,-0.807523 -9.24797,-3.057843 -12.5792,-6.43265 -3.72521,-3.773953 -5.75118,-8.88139 -5.41985,-13.66341 0.11812,-1.704877 0.27762,-2.092547 1.19997,-2.916667 1.49062,-1.331877 3.61016,-1.336923 5.09287,-0.01213 0.94244,0.842073 1.09738,1.257286 1.51048,4.047826 0.5393,3.643044 1.53983,5.730691 3.70143,7.723181 4.48507,4.134183 13.49804,5.206843 19.58034,2.330316 4.14773,-1.961606 6.8422,-5.456313 6.82743,-8.855093 -0.0203,-4.701657 -3.5457,-7.502017 -14.02187,-11.138511 -10.45042,-3.627546 -14.06513,-5.24709 -17.53816,-7.857813 -2.48179,-1.865594 -4.81814,-4.86827 -5.6543,-7.266889 -0.9094,-2.608766 -0.81881,-7.782963 0.18086,-10.329597 2.38256,-6.069506 8.66845,-10.436394 16.71654,-11.613178 3.58683,-0.524464 9.64986,-0.209025 13.14013,0.683636 7.7796,1.989685 12.81737,6.800368 14.69027,14.028091 0.9677,3.734524 -0.35117,5.97638 -3.51584,5.97638 -2.05633,0 -3.5296,-1.252696 -3.85316,-3.276306 -0.11984,-0.749311 -0.6872,-2.300822 -1.26084,-3.447804 -1.9171,-3.833228 -5.41076,-5.671737 -12.07533,-6.354484 -3.19653,-0.327468 -4.09533,-0.30108 -6.6163,0.194244 -6.6275,1.30219 -10.29578,4.592262 -10.29578,9.234262 0,2.309808 0.8959,3.994203 3.09085,5.811185 2.47601,2.049643 5.32773,3.28752 16.906,7.33856 7.08563,2.47914 10.03806,4.087827 13.1898,7.186683 2.93546,2.886247 4.10216,5.030204 4.64913,8.543547 0.77837,4.999531 -0.9293,9.643317 -5.0819,13.819837 -2.06987,2.081757 -3.11093,2.826034 -5.6723,4.055214 -1.72543,0.828023 -4.21673,1.743147 -5.53627,2.033613 -2.5979,0.571867 -8.38696,0.6524 -11.355,0.15796 z M 39.416561,77.000976 C 26.193668,75.135522 15.305551,65.456972 11.795478,52.448338 c -0.766827,-2.841923 -0.885482,-3.92934 -0.885482,-8.115003 0,-4.20268 0.117226,-5.268024 0.898424,-8.164814 2.775931,-10.29355 10.123081,-18.558186 20.021481,-22.521698 4.058076,-1.624933 6.800153,-2.094649 12.1701,-2.084732 4.134143,0.0076 5.30935,0.135106 8.123933,0.881183 3.95625,1.048705 8.660197,3.250724 9.41941,4.409427 0.755874,1.153611 0.701167,3.325682 -0.11142,4.423591 -0.36244,0.489706 -1.251553,1.099952 -1.975806,1.356102 -1.277067,0.451666 -1.408087,0.424631 -4.3398,-0.895448 -4.449197,-2.003365 -6.653854,-2.500693 -11.116317,-2.507624 -4.316187,-0.0067 -7.11827,0.546439 -10.472474,2.067308 -7.058413,3.200436 -12.405809,9.649107 -14.197121,17.120958 -2.73712,11.416967 2.933225,23.409657 13.502928,28.558484 3.777217,1.839997 6.603413,2.474223 11,2.46851 4.468594,-0.0058 7.585964,-0.785097 11.816377,-2.953893 1.599233,-0.81988 3.31473,-1.490687 3.812213,-1.490687 3.108497,0 4.869707,3.41803 3.109167,6.03404 -1.032967,1.534893 -6.146743,4.060937 -10.41082,5.142607 -3.665847,0.92992 -9.376754,1.299327 -12.74371,0.824327 z M 69.121098,75.898042 67.833335,74.717896 V 44.365358 14.012821 l 1.031126,-1.031127 c 1.427857,-1.427856 3.230717,-1.647216 4.79735,-0.58371 0.638997,0.433781 1.35058,1.159191 1.5813,1.612021 0.329694,0.647086 0.402087,7.225987 0.33819,30.733663 l -0.0813,29.910334 -1.042786,1.04271 c -0.76408,0.764024 -1.44443,1.08798 -2.545567,1.212094 -1.36632,0.154003 -1.619723,0.06222 -2.79055,-1.010764 z m 42.799762,0.598994 C 110.02843,75.431166 110,75.204732 110,61.197578 v -12.83553 l -13.359272,-0.09769 -13.359273,-0.09769 -1.17982,-1.287763 c -1.07232,-1.170427 -1.1644,-1.424574 -1.010584,-2.789234 0.115404,-1.02386 0.44824,-1.78058 1.046344,-2.378903 L 83.014505,40.833335 96.423918,40.666668 109.83334,40.500001 110,27.333334 c 0.18261,-14.426154 0.14759,-14.186208 2.21396,-15.166764 1.33039,-0.631312 2.23079,-0.631783 3.44903,-0.0018 2.13525,1.104175 2.00368,-1.012675 2.00368,32.237475 v 30.253907 l -0.92748,1.03803 c -1.12603,1.260247 -3.34869,1.630597 -4.81833,0.802854 z M 125.8,75.866669 c -0.91012,-0.910123 -1.13333,-1.39525 -1.13333,-2.463183 0,-1.028101 2.84036,-7.710507 12.51774,-29.450001 6.88476,-15.466083 12.82512,-28.761743 13.2008,-29.545911 0.40347,-0.842161 1.10062,-1.641687 1.70318,-1.95328 1.35226,-0.699278 3.44166,-0.414777 4.43687,0.604143 0.88238,0.903397 27.77742,58.273875 28.0371,59.806635 0.52992,3.12785 -3.66491,5.408007 -6.13124,3.332724 -0.65847,-0.554064 -2.07734,-3.234927 -4.58693,-8.666667 l -3.63357,-7.864461 h -9.45519 c -7.49925,0 -9.64384,-0.09755 -10.3671,-0.471563 -2.46801,-1.276257 -2.46801,-5.447283 0,-6.72354 0.70704,-0.365627 2.60049,-0.471563 8.42845,-0.471563 4.13411,0 7.51656,-0.09008 7.51656,-0.200187 0,-0.453893 -12.11809,-26.133148 -12.33229,-26.133148 -0.12814,0 -5.22744,11.265371 -11.33178,25.034154 -12.16442,27.437731 -11.53647,26.295105 -14.4526,26.297935 -1.01595,0.001 -1.51946,-0.234884 -2.41667,-1.132087 z m 65.87411,-12.6181 C 183.42958,48.895765 185.90956,30.758717 197.73586,18.916667 199.3379,17.312501 200.86866,16 201.13756,16 c 0.27913,0 1.58545,1.928697 3.04464,4.495228 l 2.55573,4.495227 -2.11896,2.299028 c -4.71124,5.111593 -6.93663,10.787241 -6.94418,17.710518 -0.004,3.77354 0.8682,7.780341 2.31995,10.656241 0.55289,1.09528 1.00526,2.060243 1.00526,2.144366 0,0.08412 -1.87233,1.737754 -4.16074,3.674737 l -4.16074,3.521787 z"
         style="fill:#d30057;stroke-width:0.333333" />
      <path
         inkscape:connector-curvature="0"
         id="path7152"
         d="m 285.74586,77.296512 c -7.9834,-1.32994 -14.59698,-6.50897 -16.94918,-13.27274 -1.0651,-3.0627 -1.39085,-7.219127 -0.67437,-8.60465 0.75471,-1.45946 1.78967,-2.085787 3.4466,-2.085787 1.08673,0 1.66737,0.22051 2.47074,0.938323 0.94245,0.842074 1.09739,1.257287 1.51049,4.047827 0.5393,3.643043 1.53983,5.73069 3.70142,7.72318 4.48507,4.134184 13.49803,5.206844 19.58034,2.330317 4.14773,-1.961607 6.84222,-5.456313 6.82745,-8.855094 -0.0204,-4.701656 -3.54571,-7.502016 -14.02189,-11.13851 -13.38111,-4.644857 -17.24305,-6.712243 -20.94564,-11.21271 -2.13966,-2.60075 -2.80292,-4.681301 -2.81598,-8.833334 -0.009,-2.870243 0.12485,-3.843354 0.74405,-5.408255 2.40665,-6.082353 8.67679,-10.43674 16.7225,-11.613178 3.57909,-0.523332 9.63588,-0.210054 13.1595,0.680656 7.74829,1.958634 12.79277,6.783108 14.67091,14.03107 0.96771,3.734518 -0.35115,5.976374 -3.51583,5.976374 -2.05632,0 -3.52959,-1.252696 -3.85317,-3.276306 -0.63589,-3.97661 -3.61593,-7.379737 -7.63713,-8.721393 -7.34792,-2.451606 -16.10806,-1.220553 -20.28991,2.85132 -1.60684,1.564584 -2.29767,3.162036 -2.29767,5.313045 0,2.223144 0.74955,3.879505 2.48565,5.492854 2.47354,2.298637 5.62339,3.701167 17.7686,7.91182 6.51575,2.25896 9.83524,4.08799 12.90886,7.112747 2.90527,2.859084 4.08868,5.010637 4.6633,8.478367 0.81429,4.9141 -0.94731,9.714637 -5.09607,13.88727 -2.06984,2.081757 -3.11091,2.826034 -5.67228,4.055214 -1.72543,0.828023 -4.21675,1.743147 -5.53628,2.033613 -2.59789,0.571867 -8.38697,0.6524 -11.35501,0.15796 z m 51.00001,0 c -4.84742,-0.807523 -9.24797,-3.057843 -12.5792,-6.43265 -3.72521,-3.773953 -5.75118,-8.88139 -5.41985,-13.66341 0.11812,-1.704877 0.27762,-2.092547 1.19997,-2.916667 1.49062,-1.331877 3.61016,-1.336923 5.09287,-0.01213 0.94244,0.842073 1.09738,1.257286 1.51048,4.047826 0.5393,3.643044 1.53983,5.730691 3.70143,7.723181 4.48507,4.134183 13.49804,5.206843 19.58034,2.330316 4.14773,-1.961606 6.8422,-5.456313 6.82743,-8.855093 -0.0203,-4.701657 -3.5457,-7.502017 -14.02187,-11.138511 -10.45042,-3.627546 -14.06513,-5.24709 -17.53816,-7.857813 -2.48179,-1.865594 -4.81814,-4.86827 -5.6543,-7.266889 -0.9094,-2.608766 -0.81881,-7.782963 0.18086,-10.329597 2.38256,-6.069506 8.66845,-10.436394 16.71654,-11.613178 3.58683,-0.524464 9.64986,-0.209025 13.14013,0.683636 7.7796,1.989685 12.81737,6.800368 14.69027,14.028091 0.9677,3.734524 -0.35117,5.97638 -3.51584,5.97638 -2.05633,0 -3.5296,-1.252696 -3.85316,-3.276306 -0.11984,-0.749311 -0.6872,-2.300822 -1.26084,-3.447804 -1.9171,-3.833228 -5.41076,-5.671737 -12.07533,-6.354484 -3.19653,-0.327468 -4.09533,-0.30108 -6.6163,0.194244 -6.6275,1.30219 -10.29578,4.592262 -10.29578,9.234262 0,2.309808 0.8959,3.994203 3.09085,5.811185 2.47601,2.049643 5.32773,3.28752 16.906,7.33856 7.08563,2.47914 10.03806,4.087827 13.1898,7.186683 2.93546,2.886247 4.10216,5.030204 4.64913,8.543547 0.77837,4.999531 -0.9293,9.643317 -5.0819,13.819837 -2.06987,2.081757 -3.11093,2.826034 -5.6723,4.055214 -1.72543,0.828023 -4.21673,1.743147 -5.53627,2.033613 -2.5979,0.571867 -8.38696,0.6524 -11.355,0.15796 z M 39.416561,77.000976 C 26.193668,75.135522 15.305551,65.456972 11.795478,52.448338 c -0.766827,-2.841923 -0.885482,-3.92934 -0.885482,-8.115003 0,-4.20268 0.117226,-5.268024 0.898424,-8.164814 2.775931,-10.29355 10.123081,-18.558186 20.021481,-22.521698 4.058076,-1.624933 6.800153,-2.094649 12.1701,-2.084732 4.134143,0.0076 5.30935,0.135106 8.123933,0.881183 3.95625,1.048705 8.660197,3.250724 9.41941,4.409427 0.755874,1.153611 0.701167,3.325682 -0.11142,4.423591 -0.36244,0.489706 -1.251553,1.099952 -1.975806,1.356102 -1.277067,0.451666 -1.408087,0.424631 -4.3398,-0.895448 -4.449197,-2.003365 -6.653854,-2.500693 -11.116317,-2.507624 -4.316187,-0.0067 -7.11827,0.546439 -10.472474,2.067308 -7.058413,3.200436 -12.405809,9.649107 -14.197121,17.120958 -2.73712,11.416967 2.933225,23.409657 13.502928,28.558484 3.777217,1.839997 6.603413,2.474223 11,2.46851 4.468594,-0.0058 7.585964,-0.785097 11.816377,-2.953893 1.599233,-0.81988 3.31473,-1.490687 3.812213,-1.490687 3.108497,0 4.869707,3.41803 3.109167,6.03404 -1.032967,1.534893 -6.146743,4.060937 -10.41082,5.142607 -3.665847,0.92992 -9.376754,1.299327 -12.74371,0.824327 z M 69.121098,75.898042 67.833335,74.717896 V 44.365358 14.012821 l 1.031126,-1.031127 c 1.427857,-1.427856 3.230717,-1.647216 4.79735,-0.58371 0.638997,0.433781 1.35058,1.159191 1.5813,1.612021 0.329694,0.647086 0.402087,7.225987 0.33819,30.733663 l -0.0813,29.910334 -1.042786,1.04271 c -0.76408,0.764024 -1.44443,1.08798 -2.545567,1.212094 -1.36632,0.154003 -1.619723,0.06222 -2.79055,-1.010764 z m 42.799762,0.598994 C 110.02843,75.431166 110,75.204732 110,61.197578 v -12.83553 l -13.359272,-0.09769 -13.359273,-0.09769 -1.17982,-1.287763 c -1.07232,-1.170427 -1.1644,-1.424574 -1.010584,-2.789234 0.115404,-1.02386 0.44824,-1.78058 1.046344,-2.378903 L 83.014505,40.833335 96.423918,40.666668 109.83334,40.500001 110,27.333334 c 0.18261,-14.426154 0.14759,-14.186208 2.21396,-15.166764 1.33039,-0.631312 2.23079,-0.631783 3.44903,-0.0018 2.13525,1.104175 2.00368,-1.012675 2.00368,32.237475 v 30.253907 l -0.92748,1.03803 c -1.12603,1.260247 -3.34869,1.630597 -4.81833,0.802854 z M 125.8,75.866669 c -0.91012,-0.910123 -1.13333,-1.39525 -1.13333,-2.463183 0,-1.028101 2.84036,-7.710507 12.51774,-29.450001 6.88476,-15.466083 12.82512,-28.761743 13.2008,-29.545911 0.40347,-0.842161 1.10062,-1.641687 1.70318,-1.95328 1.35226,-0.699278 3.44166,-0.414777 4.43687,0.604143 0.88238,0.903397 27.77742,58.273875 28.0371,59.806635 0.52992,3.12785 -3.66491,5.408007 -6.13124,3.332724 -0.65847,-0.554064 -2.07734,-3.234927 -4.58693,-8.666667 l -3.63357,-7.864461 h -9.45519 c -7.49925,0 -9.64384,-0.09755 -10.3671,-0.471563 -2.46801,-1.276257 -2.46801,-5.447283 0,-6.72354 0.70704,-0.365627 2.60049,-0.471563 8.42845,-0.471563 4.13411,0 7.51656,-0.09008 7.51656,-0.200187 0,-0.453893 -12.11809,-26.133148 -12.33229,-26.133148 -0.12814,0 -5.22744,11.265371 -11.33178,25.034154 -12.16442,27.437731 -11.53647,26.295105 -14.4526,26.297935 -1.01595,0.001 -1.51946,-0.234884 -2.41667,-1.132087 z"
         style="fill:#5a5858;stroke-width:0.333333" />
      <path
         inkscape:connector-curvature="0"
         id="path7150"
         d="m 285.78674,77.195709 c -3.27028,-0.622597 -4.52904,-1.05963 -7.62007,-2.645627 -5.27336,-2.705743 -8.98463,-7.67523 -10.00375,-13.395294 -0.61597,-3.457313 -0.60863,-4.317206 0.0487,-5.702426 0.64366,-1.356424 1.9531,-2.119027 3.6385,-2.119027 0.93908,0 1.47504,0.258487 2.34988,1.133333 0.94467,0.944664 1.13334,1.376934 1.13334,2.596634 0,3.754413 1.99929,7.885757 4.75331,9.822247 3.01924,2.12298 6.58251,3.114453 11.19306,3.114453 5.12986,0 8.86594,-1.471433 11.85802,-4.670207 1.89188,-2.022573 2.60937,-3.60898 2.63667,-5.829793 0.0566,-4.601787 -3.97428,-7.776384 -14.35036,-11.301951 -11.67075,-3.96547 -16.33489,-6.3386 -19.69199,-10.01933 -2.29778,-2.519303 -3.31382,-4.58069 -3.7702,-7.649173 -0.75224,-5.057709 0.68738,-9.226487 4.51164,-13.064607 4.89921,-4.91696 12.62946,-7.128261 21.47278,-6.142469 9.90977,1.104674 16.09158,5.48668 18.69262,13.250347 0.85341,2.54728 0.89589,4.993533 0.1037,5.971502 -2.07396,2.560349 -5.92706,1.616663 -6.74512,-1.651987 -1.67693,-6.700341 -5.95249,-9.684208 -14.49746,-10.117622 -2.02181,-0.102549 -4.4891,-0.03091 -5.5,0.159705 -7.33957,1.383909 -11.42972,5.606722 -10.38012,10.716781 0.46181,2.248376 1.62351,3.754836 4.28564,5.55753 2.2131,1.498613 4.40582,2.404086 13.76114,5.682583 9.76499,3.422064 13.80378,5.769494 16.88114,9.811674 1.96688,2.583533 2.80628,5.10699 2.81878,8.473923 0.0158,4.252284 -0.80842,6.605497 -3.57513,10.207477 -2.51168,3.269974 -7.04536,6.166284 -11.66093,7.449511 -2.67821,0.744603 -9.31182,0.939043 -12.34379,0.361813 z m 51,0 c -3.27027,-0.622597 -4.52904,-1.05963 -7.62007,-2.645627 -4.61792,-2.36944 -8.28815,-6.77674 -9.61847,-11.55008 -1.74433,-6.258837 -0.58029,-9.666667 3.30192,-9.666667 0.93909,0 1.47504,0.258487 2.34989,1.133333 0.94466,0.944664 1.13333,1.376934 1.13333,2.596634 0,0.804816 0.23247,2.355833 0.51661,3.446703 1.5213,5.840654 6.46441,9.090197 14.32306,9.415807 5.85523,0.242603 9.725,-1.1325 12.98003,-4.612403 1.8897,-2.02023 2.6,-3.609657 2.60503,-5.829347 0.011,-4.783477 -3.7852,-7.657257 -15.42473,-11.677087 -11.2722,-3.892967 -14.20621,-5.366344 -17.86965,-8.973641 -2.77654,-2.73399 -3.96764,-4.886363 -4.50513,-8.140982 -0.82174,-4.975794 0.68163,-9.380221 4.51494,-13.227411 4.89921,-4.91696 12.62944,-7.128261 21.47277,-6.142469 9.88634,1.102062 16.09774,5.505036 18.69264,13.250347 1.55013,4.626941 0.3846,7.427182 -3.0914,7.427182 -1.72474,0 -3.0541,-1.278794 -3.72367,-3.581975 -1.63827,-5.635443 -4.51813,-8.097551 -10.8845,-9.305596 -8.0075,-1.519456 -16.25779,0.951365 -18.61681,5.575422 -2.3593,4.624625 -0.16802,8.949729 6.03354,11.908876 1.54584,0.73761 6.1106,2.49239 10.14394,3.89951 10.83533,3.78016 14.50746,5.823933 17.82016,9.91803 2.35567,2.911327 3.1214,5.41755 2.9552,9.67219 -0.11003,2.817224 -0.289,3.750331 -1.02436,5.341424 -2.4542,5.30995 -7.84217,9.6704 -14.08434,11.398367 -2.71733,0.752217 -9.33246,0.949637 -12.37993,0.36946 z M 39.968547,76.988759 C 26.155296,75.373989 14.2617,64.395135 11.486081,50.696891 10.705555,46.844841 10.95286,39.224164 11.97196,35.724544 16.466274,20.290944 31.350575,10.026065 46.888878,11.64428 c 1.802786,0.187748 4.40279,0.655246 5.77779,1.038885 3.436686,0.95887 7.71945,3.021688 8.60141,4.142919 1.246983,1.58528 0.831093,4.033851 -0.919447,5.413316 -0.922127,0.726657 -3.199297,0.49229 -5.255327,-0.540881 -4.106496,-2.063544 -8.379847,-2.903528 -13.093303,-2.573665 -8.864497,0.620368 -16.703737,5.835672 -20.826724,13.855643 -2.064285,4.015414 -3.068407,9.665194 -2.512645,14.137608 0.745805,6.001747 3.126792,10.743643 7.658215,15.25185 2.381955,2.36975 3.433431,3.139467 6.032943,4.416314 4.398097,2.16029 6.648937,2.685656 11.481544,2.67989 4.869827,-0.0058 7.02392,-0.530767 11.739707,-2.861004 3.90701,-1.930593 4.96672,-1.969943 6.618573,-0.24578 0.765197,0.798694 0.97319,1.317927 0.96639,2.412514 -0.01273,2.048426 -0.849816,3.001446 -4.11974,4.690297 -3.663513,1.892133 -7.728203,3.07954 -12.0653,3.52461 -3.681667,0.377813 -3.78903,0.377843 -7.004417,0.002 z m 30.160828,-0.299923 c -0.38718,-0.164977 -1.02468,-0.70768 -1.416667,-1.206014 l -0.712707,-0.90606 V 44.333335 c 0,-29.962874 0.0063,-30.25147 0.68183,-31.110234 1.45063,-1.844179 4.67415,-1.729418 6.119667,0.217868 0.694997,0.936244 0.698957,1.087921 0.78887,30.202272 0.0971,31.442678 0.111587,31.148838 -1.598183,32.416958 -0.999747,0.741503 -2.879847,1.04747 -3.86281,0.628637 z M 112.5,76.681992 c -0.36666,-0.151663 -1.04166,-0.679093 -1.5,-1.172063 l -0.83333,-0.896317 -0.0943,-13.306804 -0.0943,-13.306807 H 96.700658 c -12.80702,0 -13.30768,-0.0238 -14.131573,-0.67188 -1.971257,-1.55059 -1.856617,-4.75597 0.21528,-6.01934 0.98701,-0.60184 1.821107,-0.639693 14.121343,-0.640866 l 13.072372,-0.0012 0.0943,-13.306806 0.0943,-13.306807 0.80858,-0.860367 c 1.73478,-1.845884 4.84298,-1.720115 6.04085,0.244435 0.62908,1.031727 0.64811,1.935263 0.64932,30.829432 0.001,33.011227 0.11677,31.301374 -2.17685,32.259707 -1.26126,0.526987 -1.99817,0.565387 -2.98857,0.15573 z m 14.27157,-0.153986 c -1.16482,-0.524047 -2.1049,-2.01814 -2.1049,-3.345384 0,-1.12472 25.75475,-59.045261 26.7043,-60.056014 0.97937,-1.04249 2.55526,-1.305654 4.05819,-0.677692 1.48887,0.622091 0.13123,-2.081982 16.09199,32.051085 9.54705,20.416964 12.94054,27.990551 12.95037,28.902688 0.0259,2.40649 -2.84682,4.213093 -5.16956,3.250983 -1.34541,-0.55729 -1.42942,-0.70099 -5.47308,-9.362527 l -3.48169,-7.45781 -9.86812,-0.166667 -9.86812,-0.166666 -0.97214,-1.088594 c -1.3692,-1.53321 -1.36925,-3.622813 -1.3e-4,-5.156146 l 0.972,-1.088594 7.9606,-0.166666 7.9606,-0.166667 -6.17833,-13.250001 c -3.39808,-7.2875 -6.25779,-13.25 -6.35491,-13.25 -0.0971,0 -5.10407,11.1375 -11.12657,24.750001 -6.9814,15.77989 -11.27408,25.085894 -11.84422,25.676784 -1.07898,1.11826 -2.79096,1.427123 -4.25628,0.767887 z"
         style="fill:#363434;stroke-width:0.333333" />
    </g>
  </g>
</svg>
