<?xml version="1.0" encoding="UTF-8" standalone="no"?>
<svg
   xmlns:dc="http://purl.org/dc/elements/1.1/"
   xmlns:cc="http://creativecommons.org/ns#"
   xmlns:rdf="http://www.w3.org/1999/02/22-rdf-syntax-ns#"
   xmlns:svg="http://www.w3.org/2000/svg"
   xmlns="http://www.w3.org/2000/svg"
   xmlns:sodipodi="http://sodipodi.sourceforge.net/DTD/sodipodi-0.dtd"
   xmlns:inkscape="http://www.inkscape.org/namespaces/inkscape"
   version="1.1"
   x="0px"
   y="0px"
   viewBox="0 0 99.729 125"
   enable-background="new 0 0 99.729 100"
   xml:space="preserve"
   id="svg2"
   inkscape:version="0.91 r13725"
   sodipodi:docname="2way-communication.svg"><metadata
     id="metadata34"><rdf:RDF><cc:Work
         rdf:about=""><dc:format>image/svg+xml</dc:format><dc:type
           rdf:resource="http://purl.org/dc/dcmitype/StillImage" /></cc:Work></rdf:RDF></metadata><defs
     id="defs32" /><sodipodi:namedview
     pagecolor="#ffffff"
     bordercolor="#666666"
     borderopacity="1"
     objecttolerance="10"
     gridtolerance="10"
     guidetolerance="10"
     inkscape:pageopacity="0"
     inkscape:pageshadow="2"
     inkscape:window-width="1366"
     inkscape:window-height="704"
     id="namedview30"
     showgrid="false"
     inkscape:zoom="1.888"
     inkscape:cx="-85.463892"
     inkscape:cy="62.5"
     inkscape:window-x="0"
     inkscape:window-y="27"
     inkscape:window-maximized="1"
     inkscape:current-layer="svg2" /><g
     id="g4"><path
       fill="#010101"
       d="M85.527,64.903c3.936,0,7.125-3.192,7.125-7.125c0-3.938-3.189-7.127-7.125-7.127   c-3.935,0-7.129,3.189-7.129,7.127C78.398,61.711,81.59,64.903,85.527,64.903z"
       id="path6" /><path
       fill="#010101"
       d="M91.408,66.731c-3.105,0-5.197-0.003-6.591-0.005c-0.651,0.008-2.155,0.02-5.082,0.037   c-2.631,0-5.539,1.141-7.111,3.537l-5.314,8.193l0.117-19.066c0-0.114-0.019-0.203-0.052-0.273   c-0.529-1.46-5.332-1.492-5.332,0.316c0,1.723-0.439,24.715,1.492,26.691c0.33,0.337,0.582,0.686,1.142,0.757   c0.784,0.103,1.681-0.006,2.533-0.231c0.02-0.002,0.052-0.013,0.078-0.019c1.261-0.347,2.403-0.957,2.927-1.584   c0.044-0.048,0.113-0.094,0.146-0.139l4.421-6.598h0.971V100h17.633h6.189c0,0,0.154-1.397,0.154-3.124V74.6   C99.729,69.84,96.624,66.731,91.408,66.731z"
       id="path8" /><path
       fill="#010101"
       d="M84.817,66.727C87.161,66.697,78.414,66.718,84.817,66.727L84.817,66.727z"
       id="path10" /><path
       fill="#010101"
       d="M67.885,41.475c0.647-0.003,1.168-0.529,1.165-1.175c-0.002-0.644-0.525-1.164-1.169-1.164   c-0.002,0-0.003,0-0.005,0c-0.19,0-19.127,1.306-20.974,20.873c-0.061,0.643,0.411,1.214,1.055,1.274   c0.037,0.003,0.075,0.006,0.111,0.006c0.596,0,1.105-0.454,1.163-1.061C50.886,42.696,67.765,41.483,67.885,41.475z"
       id="path12" /><path
       fill="#010101"
       d="M61.199,35.53c0.646-0.003,1.167-0.529,1.164-1.175c-0.001-0.644-0.524-1.165-1.169-1.165   c-0.001,0-0.003,0-0.004,0c-0.191,0.001-19.127,1.306-20.974,20.875c-0.061,0.643,0.411,1.213,1.055,1.274   c0.037,0.003,0.075,0.006,0.111,0.006c0.596,0,1.105-0.455,1.163-1.061C44.2,36.752,61.078,35.539,61.199,35.53z"
       id="path14" /><path
       fill="#010101"
       d="M32.522,36.035c0.852,0.225,1.747,0.333,2.531,0.232c0.561-0.073,0.812-0.419,1.143-0.757   c1.932-1.976,1.491-24.969,1.491-26.691c0-1.808-4.801-1.777-5.331-0.316c-0.033,0.071-0.053,0.159-0.053,0.273l0.119,19.067   l-5.315-8.193c-1.571-2.395-4.48-3.537-7.11-3.537c-2.837-0.016-4.326-0.027-5.009-0.036c-1.393,0.002-3.507,0.005-6.664,0.005   C3.107,16.081,0,19.189,0,23.949v22.277c0,1.725,0.156,3.123,0.156,3.123h6.188h17.633V27.697h0.971l4.421,6.597   c0.034,0.045,0.103,0.091,0.146,0.138c0.522,0.626,1.661,1.236,2.92,1.583C32.464,36.023,32.499,36.035,32.522,36.035z"
       id="path16" /><path
       fill="#010101"
       d="M14.203,14.252c3.936,0,7.129-3.192,7.129-7.125C21.332,3.19,18.138,0,14.203,0   C10.269,0,7.08,3.19,7.08,7.127C7.08,11.061,10.269,14.252,14.203,14.252z"
       id="path18" /><path
       fill="#010101"
       d="M14.987,16.076C21.311,16.065,12.437,16.046,14.987,16.076L14.987,16.076z"
       id="path20" /><path
       fill="#010101"
       d="M54.951,28.829c0.647-0.003,1.168-0.529,1.165-1.175c-0.002-0.646-0.588-1.157-1.174-1.165   c-0.19,0.001-19.127,1.307-20.974,20.874c-0.061,0.643,0.411,1.214,1.055,1.274c0.037,0.004,0.075,0.005,0.111,0.005   c0.596,0,1.105-0.454,1.163-1.06C37.952,30.05,54.831,28.837,54.951,28.829z"
       id="path22" /><path
       fill="#010101"
       d="M75.258,46.405c-0.002-0.644-0.525-1.164-1.169-1.164c-0.002,0-0.004,0-0.005,0   c-0.19,0-19.126,1.306-20.974,20.874c-0.062,0.642,0.412,1.213,1.055,1.273c0.036,0.003,0.074,0.007,0.111,0.007   c0.597,0,1.106-0.455,1.162-1.061c1.656-17.533,18.534-18.746,18.654-18.754C74.741,47.578,75.261,47.052,75.258,46.405z"
       id="path24" /></g></svg>