<svg xmlns="http://www.w3.org/2000/svg" xmlns:xlink="http://www.w3.org/1999/xlink" version="1.1" x="0px" y="0px" viewBox="0 0 100 125" enable-background="new 0 0 100 100" xml:space="preserve"><path d="M90.5,22.5c0-3.309-2.691-6-6-6h-22c-5.086,0-9.547,2.727-12,6.795c-2.453-4.068-6.914-6.795-12-6.795h-22  c-3.309,0-6,2.691-6,6c-3.309,0-6,2.691-6,6v48c0,3.309,2.691,6,6,6h32c2.58,0,5.631,2.467,6.588,3.416  c0.391,0.389,0.9,0.582,1.412,0.582s1.021-0.193,1.412-0.582C52.869,84.967,55.92,82.5,58.5,82.5h32c3.309,0,6-2.691,6-6v-48  C96.5,25.191,93.809,22.5,90.5,22.5z M62.5,20.5h22c1.104,0,2,0.896,2,2v48c0,1.104-0.896,2-2,2h-22c-3.711,0-7.219,1.809-10,4.934  V30.5C52.5,24.986,56.986,20.5,62.5,20.5z M14.5,22.5c0-1.104,0.896-2,2-2h22c5.514,0,10,4.486,10,10v46.934  c-2.781-3.125-6.289-4.934-10-4.934h-22c-1.104,0-2-0.896-2-2V22.5z M10.5,78.5c-1.104,0-2-0.896-2-2v-48c0-1.104,0.896-2,2-2v44  c0,3.309,2.691,6,6,6h22c1.949,0,3.84,0.779,5.531,2.154C43.527,78.564,43.02,78.5,42.5,78.5H10.5z M92.5,76.5c0,1.104-0.896,2-2,2  h-32c-0.518,0-1.027,0.064-1.529,0.154C58.66,77.279,60.553,76.5,62.5,76.5h22c3.309,0,6-2.691,6-6v-44c1.104,0,2,0.896,2,2V76.5z"/><text x="0" y="115" fill="#000000" font-size="5px" font-weight="bold" font-family="'Helvetica Neue', Helvetica, Arial-Unicode, Arial, Sans-serif">Created by Sergey Demushkin</text><text x="0" y="120" fill="#000000" font-size="5px" font-weight="bold" font-family="'Helvetica Neue', Helvetica, Arial-Unicode, Arial, Sans-serif">from the Noun Project</text></svg>