<svg xmlns="http://www.w3.org/2000/svg" xmlns:xlink="http://www.w3.org/1999/xlink" version="1.1" x="0px" y="0px" viewBox="0 0 100 125" enable-background="new 0 0 100 100" xml:space="preserve"><g><polygon fill-rule="evenodd" clip-rule="evenodd" points="10.585,28.461 10.585,29.644 11.94,29.422 12.901,27.87 10.979,27.87     "/><polygon fill-rule="evenodd" clip-rule="evenodd" points="39.626,79.113 37.062,82.361 37.119,83.502 43.617,83.502 42.705,80.082    43.617,78.998  "/><polygon fill-rule="evenodd" clip-rule="evenodd" points="85.396,79.924 84.2,79.113 81.207,81.791 82.063,83.672 86.743,83.672    87.448,82.703 86.536,80.766 88.132,79.797  "/><polygon fill-rule="evenodd" clip-rule="evenodd" points="39.549,78.029 42.199,77.998 43.431,77.373 43.239,75.574 39.436,76.436     "/><polygon fill-rule="evenodd" clip-rule="evenodd" points="39.083,71.459 39.279,74.5 42.476,73.869 42.814,73.449 42.377,71.264     "/><polygon fill-rule="evenodd" clip-rule="evenodd" points="38.77,66.113 37.745,67.158 37.745,68.396 38.395,69.371 40.823,69.893    42.263,67.938 42.354,62.822 40.823,63.438  "/><polygon fill-rule="evenodd" clip-rule="evenodd" points="45.526,47.107 44.888,47.292 39.971,53.748 38.593,57.85 35.983,61.541    37,64.076 41.203,60.398 42.077,55.971 42.814,54.246 43.918,54.418 44.757,56.223 49.401,56.684 46.381,52.807  "/><polygon fill-rule="evenodd" clip-rule="evenodd" points="38.486,41.508 40.823,39.063 41.861,36.292 42.236,30.951 43.16,31.033    39.056,25.903 26.745,19.234 20.075,16.755 15.031,16.328 11.724,17.789 9.388,22.313 13.449,22.355 14.09,21.971 14.475,20.432    16.484,18.679 17.339,17.225 18.579,17.183 18.879,19.548 24.006,20.731 23.78,22.483 23.484,26.801 22.478,28.959 21.517,30.99    21.744,33.414 21.021,35.125 19.861,36.292 20.417,36.306 21.002,37.081 21.248,37.081 23.653,35.236 24.026,32.402 24.458,30.245    26.104,29.026 27.682,26.424 27.947,23.772 30.62,25.856 28.907,30.344 26.598,34.262 24.436,38.044 22.805,39.471 24.88,42.221    26.274,40.268 28.531,36.862 31.458,32.259 32.959,27.681 34.984,29.259 34.334,31.824 33.108,34.979 30.122,39.063 26.849,43.146    26.599,44.499 27.6,45.825 28.098,47.679 29.21,46.002 30.893,42.6 32.941,39.479 35.172,36.906 35.983,35.149 37.486,30.524    39,30.66 38.999,30.663 38.687,34.979 36.881,39.063 34.018,42.612 30.128,47.49 28.907,50.691 29.651,53.463 30.433,53.928    31.574,49.637 35.124,44.131  "/><polygon fill-rule="evenodd" clip-rule="evenodd" points="18.934,28.553 20.952,27.729 21.245,22.426 20.34,20.313 19.676,20.831    18.839,23.912 17.91,26.424 15.823,28.402 13.749,29.551 11.743,30.086 8.168,31.539 7.524,32.266 12.152,31.762 15.371,31.679    19.106,32.772 18.574,29.751  "/><polygon fill-rule="evenodd" clip-rule="evenodd" points="16.878,23.21 17.439,21.202 17.682,19.064 15.843,20.313 15.031,21.571    13.293,23.681 11.751,24.397 9.862,26.942 9.539,27.378 10.543,27.585 12.665,26.238 14.832,25.306  "/><polygon fill-rule="evenodd" clip-rule="evenodd" points="15.687,34.219 12.495,34.02 7.99,33.996 6.064,34.442 5.703,34.979    5.647,35.45 5.647,35.45 5.142,39.726 7.536,43.146 11.64,42.405 12.152,40.866 11.326,39.893 7.935,39.355 7.596,38.085    7.713,38.07 9.388,38.18 12.179,39.063 13.655,39.893 14.681,39.229 12.901,37.692 10.243,36.922 7.713,36.922 7.302,36.979    6.878,35.39 7.393,35.366 12.07,35.568 13.691,35.993 15.095,37.24 15.601,38.633 18.267,36.906 17.626,35.381  "/><polygon fill-rule="evenodd" clip-rule="evenodd" points="39.619,51.18 41.877,48.475 42.476,46.594 41.971,45.284 42.263,44.131    43.603,42.417 46.269,39.521 47.22,37.727 47.22,33.554 48.266,31.808 48.517,31.567 44.898,31.207 44.482,31.438 44.585,33.143    44.566,35.744 44.236,37.24 43.16,39.365 40.823,42.169 36.856,46.61 34.126,51.195 32.938,55.418 34.154,56.141 35.331,59.615    35.479,59.441 37.942,53.596  "/><polygon fill-rule="evenodd" clip-rule="evenodd" points="54.853,53.215 52.603,49.288 49.955,43.825 49.487,41.156 53.104,35.904    54.392,33.442 52.603,31.975 51.138,31.805 50.296,34.77 46.626,41.156 46.745,44.894 48.962,51.281 52.491,56.289 54.14,57.109    57.183,57.396 58.624,57.178 57.442,56.361  "/><polygon fill-rule="evenodd" clip-rule="evenodd" points="54.392,39.669 57.521,36.763 59.186,35.513 63.451,33.442 64.028,32.524    64.619,31.372 59.462,32.658 57.003,33.442 56.557,33.549 52.71,40.167  "/><polygon fill-rule="evenodd" clip-rule="evenodd" points="63.015,53.928 61.756,53.006 59.875,50 58.624,43.498 58.37,42.344    59.581,41.429 64.393,38.953 69.675,36.48 76.053,32.796 78.898,30.064 71.803,29.58 68.34,31.686 65.578,34.724 60.858,37.744    56.371,40.74 54.64,42.344 54.062,43.73 57.007,51.471 60.499,54.881 62.932,55.719 65.504,56.143 66.628,55.6 65.833,55.451  "/><polygon fill-rule="evenodd" clip-rule="evenodd" points="67.935,43.675 70.312,42.16 76.896,39.732 81.391,38.396 85.94,33.962    81.834,30.492 79.166,34.505 75.328,37.239 64.234,42.344 63.292,43.368 63.292,48.646 65.803,52.98 68.834,54.535 70.288,53.832    68.125,51.492 67.06,47.528 67.094,44.91  "/><polygon fill-rule="evenodd" clip-rule="evenodd" points="80.861,45.022 86.311,43.78 90.569,41.464 89.387,36.876 89.172,36.694    84.967,40.016 77.787,42.861 71.172,45.292 71.306,49.738 72.657,52.238 73.769,52.15 75.733,54.486 74.443,49.876 74.029,46.597    76.305,45.659  "/><polygon fill-rule="evenodd" clip-rule="evenodd" points="88.882,49 89.293,48.89 89.9,47.421 90.019,48.709 92.049,48.375    91.382,44.229 89.079,45.921 83.67,47.712 77.215,48.275 77.573,56.426 78.674,57.979 79.283,57.666 79.429,55.719 79.733,52.727    80.691,50.942  "/><polygon fill-rule="evenodd" clip-rule="evenodd" points="83.308,58.27 84.798,55.637 87.116,55.318 87.05,54.318 87.959,52.119    82.16,53.494 81.236,57.039 80.551,59.646 80.201,59.975 81.15,61.355 81.932,61.195  "/><polygon fill-rule="evenodd" clip-rule="evenodd" points="86.169,59.443 84.633,61.244 83.182,62.99 82.601,63.465 84.005,65.508    86.06,64.613 88.427,63.852 89.461,63.713 87.325,58.898  "/><polygon fill-rule="evenodd" clip-rule="evenodd" points="85.796,68.111 85.303,71.51 86.692,71.51 88.485,71.311 89.926,70.656    90.569,66.211 89.035,66.684  "/><polygon fill-rule="evenodd" clip-rule="evenodd" points="84.434,77.5 87.225,77.146 87.937,76.406 89.205,75.635 89.475,73.768    84.975,73.768  "/><polygon fill-rule="evenodd" clip-rule="evenodd" points="90.011,52.119 89.194,55.604 91.268,55.828 92.641,55.344 92.501,51.869    91.666,52.238  "/><polygon fill-rule="evenodd" clip-rule="evenodd" points="93.605,63.381 93.605,60.723 92.049,61.664 89.672,61.785 91.896,64.691    93.49,65.889 94.858,66.459  "/><polygon fill-rule="evenodd" clip-rule="evenodd" points="88.959,57.379 89.339,59.068 89.501,59.791 91.211,60.104 93.351,59.039    92.802,57.051 91.51,57.666  "/></g><text x="0" y="115" fill="#000000" font-size="5px" font-weight="bold" font-family="'Helvetica Neue', Helvetica, Arial-Unicode, Arial, Sans-serif">Created by m. turan ercan</text><text x="0" y="120" fill="#000000" font-size="5px" font-weight="bold" font-family="'Helvetica Neue', Helvetica, Arial-Unicode, Arial, Sans-serif">from the Noun Project</text></svg>